<mxfile host="app.diagrams.net" modified="2024-05-17T14:00:24.694Z" agent="Mozilla/5.0 (Macintosh; Intel Mac OS X 10_15_7) AppleWebKit/537.36 (KHTML, like Gecko) Chrome/125.0.0.0 Safari/537.36" etag="NAP5DxulOE8u9QRaw2J_" version="24.4.4" type="device">
  <diagram name="PÃ¡gina-1" id="-XaAuE8N9lGovwBq7lMT">
    <mxGraphModel dx="954" dy="1665" grid="1" gridSize="10" guides="1" tooltips="1" connect="1" arrows="1" fold="1" page="1" pageScale="1" pageWidth="827" pageHeight="1169" math="0" shadow="0">
      <root>
        <mxCell id="0" />
        <mxCell id="1" parent="0" />
        <mxCell id="Ac2NSIi3MnS_sZesIx5R-36" value="VPC" style="sketch=0;outlineConnect=0;gradientColor=none;html=1;whiteSpace=wrap;fontSize=12;fontStyle=0;shape=mxgraph.aws4.group;grIcon=mxgraph.aws4.group_vpc;strokeColor=#879196;fillColor=none;verticalAlign=top;align=left;spacingLeft=30;fontColor=#879196;dashed=0;" parent="1" vertex="1">
          <mxGeometry x="399" y="172.85" width="431" height="307.15" as="geometry" />
        </mxCell>
        <mxCell id="Ac2NSIi3MnS_sZesIx5R-1" value="" style="verticalLabelPosition=bottom;aspect=fixed;html=1;shape=mxgraph.salesforce.web;" parent="1" vertex="1">
          <mxGeometry x="40" y="100" width="60" height="47.400000000000006" as="geometry" />
        </mxCell>
        <mxCell id="Ac2NSIi3MnS_sZesIx5R-2" value="Web y movil" style="text;html=1;align=center;verticalAlign=middle;whiteSpace=wrap;rounded=0;" parent="1" vertex="1">
          <mxGeometry x="37" y="70" width="60" height="30" as="geometry" />
        </mxCell>
        <mxCell id="Ac2NSIi3MnS_sZesIx5R-3" value="" style="shape=image;verticalLabelPosition=bottom;labelBackgroundColor=default;verticalAlign=top;aspect=fixed;imageAspect=0;image=data:image/png,iVBORw0KGgoAAAANSUhEUgAAAOsAAADWCAMAAAAHMIWUAAAAclBMVEX///8IfqQAfKMAeaEAdp8Ac50Ad58AcpwAf6X1+vv7/v7y+Prh7fLV5u3t9fiJt8vB2ePd6/AniKu51OB2rcRlpL4dhamqy9lYnbnO4elDk7JAkrGawdKhxtY2jq+As8hfobuSvM+yz9y81+J7r8Zvp78y5Z2XAAAVZUlEQVR4nO1daZuyvA4e24KKCoobKOIy4///iwdcaLqkpIzwPue6JufLeefR2rRptt5Jv77+6I/+6I/+6I/+r2i+Ls6X7JDdf5J9Hn9gwDjfJ+d7NeLmfF1+YsDP0HR9GQWCc1YR51yIIMyu+bTzeNGiyHggqhH5a8TxJLt1H+9ztLhwwUYqVTMU/NJpetH3fRRUPOojCr5dfHzufrTIxlyf15vfMNguPYfLt5WAWIcbMT7O/ktuo83YzuiLuJhcZ+TRpqddgDD6Yne8iXrkxkk5c07txe5mThosPptnwRyN5T3zhFAxbuX0Mb/g3s5tvMHOgkbjYgDODLoHJFZHj711q6nojJ1Sk4L7QPwB2grq7B7curbjxMmcViS2g/H4orvBam1ecTEMd5hOzlP8nFpHFAPv7DXQ5iRClpaHMq22UFhPHgsuNpU83QbWT9fDjNLymE6q/6d9Ihj0zOZjdWLh9vb242ardXI0plcT53tjoJtNlVfcHZP16rU008U+05ZvPKA2nk5UHgpd9VRuY7XR5tZm6tZOM1O/MSHuS3282VU90pPh7OyWw7ltrJ+JbkfTM+DhN/jI0tRJXBzW9t/cQFHhg+mnBZRggfuBi63JbSBXZqNvanVIf1boaEuoDcdDuYslWGGBT+6rdhEMw8nTp2cxT41/4WenQ7kCzLLyg/w4aC1/k4m29Y3vup5l4lb9/aZrLyZ+2lznBfhOgIj6h6n0+8XVQZNVFpy/ztoKVGqL4Dav5UjDbOxS/iC3qyWd1hNNXLmulATqaah0l98LfOPFLpTJHaGq/ujHGfuxICH+dgS+lHXmgEyxPK2Pg0ejRYq7z6J06jeF9uDX+89CFY0YsdTne2csLCJv6oN2jYDw/j3FY/NjwnT5XJTrp/Y545Gfvyc3lh29vtiBpAgz7vnVKDPlWGS+3p70jHsXYmlc+Y/3l0+G+3DyHuOnGUP0bWKlKxx0cNNKzap2MJKL5tzzvuNYKUL+scY01S0PT71zyFETY7HQ97t+NJer6h1qzHamcurALJCsfg+sDDZCunF90mxnTUDs6AnkJ93C5sD26zpd5aLS0r4N2VntwCwQravfNz1JOoieh2U6wbxEtvMUY2n1+nUTd83vHLy+p6olpgR0zPPMHpov77y+50nTJofJzz7fi0qolni6UNQUL71U+vn9XTbq86JSek1+DuJRZ01j3svdk25ir57TQv6Mjw7MzF3UmPU5edIWdHFnyPQtefX4mW0I2XrvobLXoYcPBBb8u/3TnUmKj4cdP0OXn0uddoDMCvr5jxuj4xlp+ZEMXjlZnZxg4MqhB6yIcUAOA6JGTDqEDnSSrsSIyutyrLAKv6ae2TFVA0Sjxhj06UwkzeSonv8KmlLdkipWl4XEVIz0/rlXSsOTGtNGNeMxvFQ0PaQpdBzZiOgtNg6Nn5H3pE1jxom5JhiwMmbqM3UtiOFs2vBKy9l2I8krbVp3RdXaZHSlKGma5WkWcBheR6R9LYAKxq5DcqimabfIw+yr33lV2cCyQzflU5Ss4jDn1UsPx4r5xHesUAxwu48ykB72sa8RNChOaduARWFp+8DD2Fcfv+kCt3W33BdJ8rO5b7PscCzL8ng4ZNll+5Nci/33DnySX9oGjmTats/U/036w2228KTeaTwgsk+ULKDHn4SaIm91FoE/7Jvz8iEZ5wSokxPNl8XmYMkZUonvDvfie4XG4SvJa59xTi7DKYvCjFa35LIT9RaSsIUosXqzxSRLbivLUXFP4mMkc3h6rD5fJwcRhL9kUmc5DPhxs9cYBsLlmcv0IpmDAeFUlBcZQ9Bqv+e3RrCxQ7KU+kHeCvWag5mOtNzaNL8eg57YVBkep+fvJ2sD5dake8a2lZIoDrx3PiXDNXTvWp3QbfOLXpfd3iRzs+l5YqlB6J9fvpHr7Zej9iXg4nQwKvXKQPM6GvmvFQBr9ur6Q8eJOrXaXwjFgypxn+zSymXKns5TuttVG/X8x4eb4Tl2z4iJpQ8avHYLyuynON2W+Woe273KKJ6vVvn6dN1kR08HpNd7uum+9Fp7em7wRSdyDUFNLC18LzSptNoE7qqSWlNCZHG7G2+QckMwaTPajAd3OjaKTsvMVShUsRnssutydoGT8zd/UzhmFq+TbOQ23zzIPi3J6xLd0trQh2XyNPQArNgNqQ7R9U/I4Xx9Tl0bzET5SUDMbYdxWhu8Q7F4q50IiHDHBMkPkJ4m+REvkyNHa3iY2H0quFtjWEJWOW6JUvwJzC/bdcPkRyBlrBjQ6fKn9l7sUxHpJ/Y2x6U322u+NwTHd0apQynWj0HllWICFpS/DfDii7V85jG6mSIGGaZfpPiAFFtS7gZGSnJ7+VXYU7jq3Ma6mr3Ke1b2GygDkOJQz55NHQWL7ko2N1lBv3IeRrgOdDApz4sRzCvr4Thw3GzlZ2nHk5NYxLcyZxLAq2VnwVH6JVQQqjgtlpEZamYz+HSIOaT5zoKAZclMIhK1A7uGFxq/q4uCpku7L2icVMa/ZgmzzHHnnZgxakpqK7avWZDbx6E36pifP32DdVNuGGZyW+sNj/am5We+mdSNWVXztmAy968c2EQusReqxU7ALxZQKuVxfef810ZJKQt84trpUZcNYKtzK1o6hvrk9ykvbDiAlG6039o4beGR7InHehypVHPKKwZ4WQduNAw70YUKICYX+Wd5GwIR+Hu93odTAZ0rLUHAxFlRNVITS4OwABVRn0EJAp9BQrZkyl/FXUZnTZAZI8V6K9XnZOKgKbaTJUkM7M2HCqJAxCTtDkgNa9Cm+UHlloQ0maus8tDAS8lr/2YSsO7sU0BXoJ6a5ZNLKgzLstf2iLfanlh1R8TBIvjy0Lxv64BX156Lj2ZxHLefJ1Dg9T4WM7mkloMyOyg6ygZFUeehorftnSukMnwB4UHlV9tVd54cd6EIRLg7Ji1+5BnYnadwSfi7vWBG7e7RFlUqGEGGdCSRVuepISK4Pq7x48rRkW4Xr9ww19JPjWGlVkRu6HJFrbqPkwqTLLGZgNqr2pBdjQ2w0sxS5Cw2DmGWSnAkajs2BTVXyFdiBfYnHEKmtFIQ+KrIspG69mlGszc3a3cQzh0eHXQ7Z0rNFx5bKJKJYxxhEm8kLvgcvhUhPlsUpkn2nhm1R4cX+oBq8Tr2ByLsuFC/QNlE4ToQZeaUdSBMwXQmG0ngl0nRAb8wEAf0jMvUOwtnU+lIcJcPCHPMWNEf8H3arKTMAotbArYVjZRLR35DBRUrBKJ2fpXAlJaaL8gsMiVZ2dqKMgJCfJSFN3i9TOZi1bWyUmzZ5EgS4S8VWWWvkoWZjzb0WATkFniHmFtWtN14oYkimNeRP9kGropBgYE1GwRd2lYszd2yUahkrdpvpNBl2tp+qDXD821zpq0TImSLbHeTpov6IiynCwjVarZ1ItxFgr2wTAskrZxa7kUTYwboCi0pF42otbqYCzVpnx6wFBavVTr0IeXWNDFka4xt67F9Wx2V9isjIUxClxbWjMJrSLD4lCTgXBdi9LQuaPfHqL0ydDh6ViCBrhuGLpBRMBGUqx9CdAamBFgJ/Vn9xBLRL/JnjSoe4B3Qbqpv6sbi5p0IO8ArCDJ1AGJKdIV7HvK4UtNFGhIWW6EZFQKBonS1jcVCHJ1QjiK549S2ERsl1EUFK2/zIxoe0NBdOS5kUJOcn2ZX5pZ8WQspOge/q9qTeUVDX8VoketAQR5OVSVSuumgIXAQHeU6V5pqcoL3U9IvaSTdHU0DgZpS8m3iHqS/8Qscohp26n+YzyKXgQJItSoKqw68AryeYwaf4BX0kaHj8nJsX+cdZBhUXzhyL5+QYeCQ0m8VUBnuoJuUqiq8586NqpvwRiRrOAT5xl6KXahGqMDmUK/ElWgLVxkfsDmKN0LuQyNDHT3clTlwopBMVQuPLveU7Etg0VUe0D6nkRR8nSO5CsQOAyd1v3BnghTmuFqKaZ63oB2yBZ5glWqdiEzS3VzUxhOVE6qact33p1lYmck1nJR5EyaSQnUzUkMTa0b0Zyd6VoPkOcG0rjGy9E1I1YcbM1ZHA1BSrI4tlb6tRI8dpFlM7BvwDAglPpEJgsRnS+mNjwJwzWRVaxrxS7nQtGwdEDXCdfHallvDwjrCxqI/aW4rqYFe5sytQXRHe+8R2/QdJ7aNWYaeVq8fagg40NYPQ0AsXvH5pJkVFYgqjX2bjQ2wxV3YcuEj0XIrD6N7uxoBS9jWF2zfJNZZJt1i3MZu3LoYaTn+pVi2Heh/5k7DwH5niAxA49DSPQreDoLsJO6rWtp7AlZRmQQpd3FSb0IdBLslYYcjgcy6snVAhIMIIAgc7VQdr3c4IHUwSI8iOYRTiOFtc4iGgBAYwvFbURC71CsMIQS4hizQu2Y8IoXdhgtFmnAhjiCrjlYuijPk6PgGfnSt2lrH9UNuAenWEFhHjAaXPoKGDhfiqdoUyuFiKZeHHEPiRpo/CcIAXGbq0Uc6kk6MXJ+HAlM7/NDvQ/ZhrkAp3WGC0hSCITkKqTHY5fEHKftuZzoq0kcV1eN/XARp4fKAZpK1VzYCJOyxmfmEumrPxrE1ByR94df5/AY+V4uzutrfjzvG2a6uuXd/FLjcr4t0AISx6rOz0oK9te+S1nY0LC1yDDB6r32BLf8JN0vTGSGUAlfq7zAOaGJLRmFewn59lEapGiCRmdf7UoM1zsPCfY/dieA9/8L4m6l1Cg1oOiIgtucafFiU2rCgKUxz9i8ku+NDoFRCgqXBbaK2BYtSy5OMSCUOsdZSlgV3ReTA4jbjQZ/rM4/bgIys9H2kXKtWZ6a/+sEmRBz+VH8ChQugMKdSC4PDDwrDPtJVCaTQobprehCMhJxRZJSHebSrNrrTV4awEVdQSgEmAdBrn2hdIlNC1W+DeYPahsbqnEZGJYZXJ/3EcF/Dyek5QGL5uS/FofiAegLJRyWYBgv9lJ7oNFG072OtPQXr20yyhOzxrpW0L6rfkCLT60Iw1lbShlOu/H12ZQanjHt3OoqNGp0aALuZyxsCLapRcG+/6w8wA8dPi7XBSn+t7qGZjxXHLtVBhZk6YTwAP6aJCrA7HToQQALZIt1BAvnB0lLlbHEHaDS3bK2jJjSG6uk3hStKFaKmUN3NPMSxu1o0CpogGWCO4jNGFkK2jZPvgprYHvvz+d0ftIbb0lEIuMW/qIAFF4C2OnFsOiz4+W07p9UB5TbVq06U2vyuUgwbFo+1UGiRYKyy4PCJDiL5EUuf8IDLhyRrOsP8R7dVhu83KnUY8W0bYj0XWHD8VJu5ZYntbd3+Ld3c3hpB6aXR7R1EKMHNKZnfNqlAG9exoPxkn5T8gHeDqfgVk/vp0VQDQpE6VTfDTq6PuC3KT9sJzmddQn/4dOvAxd35znDd0fBwvs23YE6EPqw6xcCmV47L/l7WbaxcvyvufTT5j4tJW0+jUOlp1MEvVm+wW3saiVHRW9vAbwKcHc716mdlo8Twbp2sHvrs8QmzaBTiLD1sr6f9erlY2ctAZ/F8ka/3zxZkhPfalaUc6q0gGtW50Udz0orCun3cZLJL0/LRV25S/9u77VyH1nJ9vxUk4TKsSxPIx1dY82J3hxGUnoH9PmQmY+jyVDf37DDZ3xAXQVmUDdv9vjwo25JXazpb33fD8Vt3dNusZ1C2hnoX6eW+zffbUe/81t7Z5P6+J/hP30WqTP6ubuLa5fi1s8lFCLzQr8F68oL21XqgnheXVLh8uQ5sVgq6rJxPjSPwLlIfzRHf1NK+epp/pIn2s4U2y863hc0XGaiH9pqypNGqbo7e/QizbFOsV3h2DghXny+Fgjeg2jKFGs7n5TDItvev/3i0qVU+OW5jQKZheu157/OWgYLzSRd1K9rkXL9mcMkqutw356R+yGC9zBcw2YDjf9400FsGXu9xwJjFmUSFl/kE/0CWBfbqJJ59eFXeHnG0tVAaeLD2LPpAb4/8eLks6psyGE7j5F1VNfAbULQW7CobCJxD+QwpwTvMW0GNK0oEom9A7M2sCL4cZu1C2j41t2T/0htQ+qOZpk1eKf9OzNn8i29AfemPshndo1qedEPoH3wD6kGKMmY7ldlYARhR045DvwHFyF08FWWsbp2y6fTC1kgGln36EicPv+lNyjtlELShvmtMz5wDv6nPtzM7vYmqvlNWvplV0Ta0l+keNNAbUMtO4ZTa2ey1syqrHs+/wpiuz6QpHqs76a4yW7uBMwX86vOs71Cxete3qTNdG2sa2Kt/pFQa4UDvIlFbMzxJ7UU4WSowQKoP8SIAkRvoXSRyP4AHRYoDpQLNPFkFsWK/7yIBZLbfFyMd4yhZ9XtJ/utL4i8vfl/0JJmY8AUdYsx6s7oaJi2hGB1ffI2dWd7+VqZG+2FMTqWIZQmHd+/dyNI40HtXYcHMuE81XFEzS7pH3JCmoEbugidsEBAa+X7Xk2zNyemkFbl7KvMH2Vuz90IAwOt/+3k29tU/KAMNE/o9rkrZoPCUv7g00RAh2vcXIdCFXvTqSdQEWnb7RVTmSxAPMfaMVaTR6/nVwZpkmS+lT2FD0wwBiLLg4rM/ElNkNm3/OE0lr85CQZXWDogLZ/QrKADbDXsXYQgYZNQMUYxt6ouCjDoQaGfZDe7oRwA4S4zFCh1lJ/RSWE5090Bs2Pk9LS8C2DUKun45CTWlFBRfV73Ji9gRLAiQ4AE0U00KlrRthvnBaBzD6u8sdXQFCw5tOwWx/h96CaOVwMYy928uTFC5OD5v4mZG4QQTbm6XYKyBtlVrHetIAH5bAOWgJsqs7ar2Fl86JR2pg+P7I6XJjzhYleg8sSBw+QQ60fnEMETVuU2sgXGsNJLv+UVfhZTMGAs2+iqvitKGIzc6Sdi6TvAgLXR252rNZ2t19idJ61TFg7LIn+/2RnG+v++sNQh8Ygro0tzaR81Eutm/BvyKl1d94cjXIR8hvZtN/V4oS9NdJYTCjthjwdkWK0Rna9lEjeOqTNUutYHDgz7T/RYyFcujkwIKkw2O2F4sDKskBxzZBuz03N6v6OzxtDITI9dWrI1iXRcFfV66IkRmlvFWbE5BR14Pv6s13fBSO0hcXNtxPNMrDZfLhj6rb1phD/6CuYkRgdOapka3GAuF6WA+hEGJ623uR2WwzzbcjugbxQ/i/438vml+H6N3F4Kffe3g6oxYrHq88eb3/Q1+R/FmYhjAx2vr527g3uXPzkRcVxIyOfec+SZRtDwfg2f1Da8LbgJRbm6/OVfz/bbkjxGfsFsRpB0Xrhea5rci2V5+kuKWf0bS5vWIP9vz9bS2osP/6I/+6I/+6I/+Yfof6+IKKo5LDLEAAAAASUVORK5CYII=;" parent="1" vertex="1">
          <mxGeometry x="42.84" y="20" width="48.32" height="44" as="geometry" />
        </mxCell>
        <mxCell id="Ac2NSIi3MnS_sZesIx5R-4" value="" style="sketch=0;points=[[0,0,0],[0.25,0,0],[0.5,0,0],[0.75,0,0],[1,0,0],[0,1,0],[0.25,1,0],[0.5,1,0],[0.75,1,0],[1,1,0],[0,0.25,0],[0,0.5,0],[0,0.75,0],[1,0.25,0],[1,0.5,0],[1,0.75,0]];outlineConnect=0;fontColor=#232F3E;fillColor=#E7157B;strokeColor=#ffffff;dashed=0;verticalLabelPosition=bottom;verticalAlign=top;align=center;html=1;fontSize=12;fontStyle=0;aspect=fixed;shape=mxgraph.aws4.resourceIcon;resIcon=mxgraph.aws4.api_gateway;" parent="1" vertex="1">
          <mxGeometry x="317" y="79.85" width="78" height="78" as="geometry" />
        </mxCell>
        <mxCell id="Ac2NSIi3MnS_sZesIx5R-5" value="" style="sketch=0;points=[[0,0,0],[0.25,0,0],[0.5,0,0],[0.75,0,0],[1,0,0],[0,1,0],[0.25,1,0],[0.5,1,0],[0.75,1,0],[1,1,0],[0,0.25,0],[0,0.5,0],[0,0.75,0],[1,0.25,0],[1,0.5,0],[1,0.75,0]];outlineConnect=0;fontColor=#232F3E;fillColor=#DD344C;strokeColor=#ffffff;dashed=0;verticalLabelPosition=bottom;verticalAlign=top;align=center;html=1;fontSize=12;fontStyle=0;aspect=fixed;shape=mxgraph.aws4.resourceIcon;resIcon=mxgraph.aws4.waf;" parent="1" vertex="1">
          <mxGeometry x="337" y="10.149999999999999" width="38" height="38" as="geometry" />
        </mxCell>
        <mxCell id="Ac2NSIi3MnS_sZesIx5R-6" value="" style="endArrow=classic;startArrow=classic;html=1;rounded=0;" parent="1" source="Ac2NSIi3MnS_sZesIx5R-4" edge="1">
          <mxGeometry width="50" height="50" relative="1" as="geometry">
            <mxPoint x="307" y="98.15" as="sourcePoint" />
            <mxPoint x="357" y="48.15" as="targetPoint" />
          </mxGeometry>
        </mxCell>
        <mxCell id="Ac2NSIi3MnS_sZesIx5R-7" value="" style="endArrow=classic;startArrow=classic;html=1;rounded=0;entryX=0;entryY=0.5;entryDx=0;entryDy=0;entryPerimeter=0;" parent="1" source="dzg4uFaLURz1kJaoMzaz-1" target="Ac2NSIi3MnS_sZesIx5R-4" edge="1">
          <mxGeometry width="50" height="50" relative="1" as="geometry">
            <mxPoint x="100" y="120" as="sourcePoint" />
            <mxPoint x="260" y="117" as="targetPoint" />
          </mxGeometry>
        </mxCell>
        <mxCell id="Ac2NSIi3MnS_sZesIx5R-8" value="" style="outlineConnect=0;dashed=0;verticalLabelPosition=bottom;verticalAlign=top;align=center;html=1;shape=mxgraph.aws3.lambda_function;fillColor=#F58534;gradientColor=none;" parent="1" vertex="1">
          <mxGeometry x="459" y="82.85" width="69" height="72" as="geometry" />
        </mxCell>
        <mxCell id="Ac2NSIi3MnS_sZesIx5R-9" value="" style="endArrow=classic;startArrow=classic;html=1;rounded=0;exitX=1;exitY=0.5;exitDx=0;exitDy=0;exitPerimeter=0;entryX=0;entryY=0.5;entryDx=0;entryDy=0;entryPerimeter=0;" parent="1" source="Ac2NSIi3MnS_sZesIx5R-4" target="Ac2NSIi3MnS_sZesIx5R-8" edge="1">
          <mxGeometry width="50" height="50" relative="1" as="geometry">
            <mxPoint x="519" y="179" as="sourcePoint" />
            <mxPoint x="449" y="119" as="targetPoint" />
          </mxGeometry>
        </mxCell>
        <mxCell id="Ac2NSIi3MnS_sZesIx5R-10" value="" style="sketch=0;points=[[0,0,0],[0.25,0,0],[0.5,0,0],[0.75,0,0],[1,0,0],[0,1,0],[0.25,1,0],[0.5,1,0],[0.75,1,0],[1,1,0],[0,0.25,0],[0,0.5,0],[0,0.75,0],[1,0.25,0],[1,0.5,0],[1,0.75,0]];outlineConnect=0;fontColor=#232F3E;fillColor=#DD344C;strokeColor=#ffffff;dashed=0;verticalLabelPosition=bottom;verticalAlign=top;align=center;html=1;fontSize=12;fontStyle=0;aspect=fixed;shape=mxgraph.aws4.resourceIcon;resIcon=mxgraph.aws4.cognito;" parent="1" vertex="1">
          <mxGeometry x="589" y="58.849999999999994" width="78" height="78" as="geometry" />
        </mxCell>
        <mxCell id="Ac2NSIi3MnS_sZesIx5R-11" value="" style="endArrow=classic;startArrow=classic;html=1;rounded=0;exitX=1;exitY=0.5;exitDx=0;exitDy=0;exitPerimeter=0;entryX=0;entryY=0.5;entryDx=0;entryDy=0;entryPerimeter=0;" parent="1" source="Ac2NSIi3MnS_sZesIx5R-8" target="Ac2NSIi3MnS_sZesIx5R-10" edge="1">
          <mxGeometry width="50" height="50" relative="1" as="geometry">
            <mxPoint x="525" y="129" as="sourcePoint" />
            <mxPoint x="589" y="129" as="targetPoint" />
          </mxGeometry>
        </mxCell>
        <mxCell id="Ac2NSIi3MnS_sZesIx5R-14" value="" style="endArrow=classic;startArrow=classic;html=1;rounded=0;exitX=1;exitY=0.75;exitDx=0;exitDy=0;exitPerimeter=0;entryX=0;entryY=0;entryDx=0;entryDy=0;entryPerimeter=0;" parent="1" source="Ac2NSIi3MnS_sZesIx5R-4" target="-6WKzzLJTVQNrHKm3zgj-1" edge="1">
          <mxGeometry width="50" height="50" relative="1" as="geometry">
            <mxPoint x="405" y="129" as="sourcePoint" />
            <mxPoint x="490" y="190" as="targetPoint" />
          </mxGeometry>
        </mxCell>
        <mxCell id="Ac2NSIi3MnS_sZesIx5R-15" value="" style="outlineConnect=0;dashed=0;verticalLabelPosition=bottom;verticalAlign=top;align=center;html=1;shape=mxgraph.aws3.dynamo_db;fillColor=#2E73B8;gradientColor=none;" parent="1" vertex="1">
          <mxGeometry x="606.5" y="293.5" width="72.5" height="81" as="geometry" />
        </mxCell>
        <mxCell id="Ac2NSIi3MnS_sZesIx5R-17" value="React.js y React native" style="text;html=1;align=center;verticalAlign=middle;whiteSpace=wrap;rounded=0;" parent="1" vertex="1">
          <mxGeometry y="-10" width="140" height="30" as="geometry" />
        </mxCell>
        <mxCell id="Ac2NSIi3MnS_sZesIx5R-18" value="WAF" style="text;html=1;align=center;verticalAlign=middle;whiteSpace=wrap;rounded=0;" parent="1" vertex="1">
          <mxGeometry x="326" y="-11" width="60" height="30" as="geometry" />
        </mxCell>
        <mxCell id="Ac2NSIi3MnS_sZesIx5R-19" value="API Gateway" style="text;html=1;align=center;verticalAlign=middle;whiteSpace=wrap;rounded=0;" parent="1" vertex="1">
          <mxGeometry x="296" y="160.85" width="60" height="30" as="geometry" />
        </mxCell>
        <mxCell id="Ac2NSIi3MnS_sZesIx5R-20" value="Lambda Function Authorizer" style="text;html=1;align=center;verticalAlign=middle;whiteSpace=wrap;rounded=0;" parent="1" vertex="1">
          <mxGeometry x="463.5" y="48.14999999999999" width="60" height="30" as="geometry" />
        </mxCell>
        <mxCell id="Ac2NSIi3MnS_sZesIx5R-21" value="Cognito" style="text;html=1;align=center;verticalAlign=middle;whiteSpace=wrap;rounded=0;" parent="1" vertex="1">
          <mxGeometry x="598" y="131.85" width="60" height="30" as="geometry" />
        </mxCell>
        <mxCell id="Ac2NSIi3MnS_sZesIx5R-22" value="vehicles-api&lt;br&gt;users-api&lt;div&gt;trips-api&lt;/div&gt;&lt;div&gt;alerts-api&lt;/div&gt;&lt;div&gt;stadistics-api&lt;/div&gt;" style="text;html=1;align=center;verticalAlign=middle;whiteSpace=wrap;rounded=0;" parent="1" vertex="1">
          <mxGeometry x="410" y="374.85" width="83.5" height="30" as="geometry" />
        </mxCell>
        <mxCell id="Ac2NSIi3MnS_sZesIx5R-23" value="DynamoDB" style="text;html=1;align=center;verticalAlign=middle;whiteSpace=wrap;rounded=0;" parent="1" vertex="1">
          <mxGeometry x="542.5" y="321" width="60" height="30" as="geometry" />
        </mxCell>
        <mxCell id="Ac2NSIi3MnS_sZesIx5R-27" value="" style="endArrow=classic;startArrow=classic;html=1;rounded=0;exitX=0.469;exitY=-0.023;exitDx=0;exitDy=0;exitPerimeter=0;entryX=0.5;entryY=1;entryDx=0;entryDy=0;entryPerimeter=0;" parent="1" source="JkVwLyGTWLXdijpWyfya-1" target="-6WKzzLJTVQNrHKm3zgj-2" edge="1">
          <mxGeometry width="50" height="50" relative="1" as="geometry">
            <mxPoint x="524" y="549" as="sourcePoint" />
            <mxPoint x="523.5" y="474" as="targetPoint" />
          </mxGeometry>
        </mxCell>
        <mxCell id="Ac2NSIi3MnS_sZesIx5R-31" value="" style="endArrow=classic;startArrow=classic;html=1;rounded=0;exitX=0.231;exitY=0.063;exitDx=0;exitDy=0;exitPerimeter=0;" parent="1" source="JkVwLyGTWLXdijpWyfya-2" target="-6WKzzLJTVQNrHKm3zgj-2" edge="1">
          <mxGeometry width="50" height="50" relative="1" as="geometry">
            <mxPoint x="607.5" y="549" as="sourcePoint" />
            <mxPoint x="562.5" y="474" as="targetPoint" />
          </mxGeometry>
        </mxCell>
        <mxCell id="Ac2NSIi3MnS_sZesIx5R-32" value="IntegraciÃ³n sistema monitoreo" style="text;html=1;align=center;verticalAlign=middle;whiteSpace=wrap;rounded=0;" parent="1" vertex="1">
          <mxGeometry x="425.5" y="570" width="60" height="30" as="geometry" />
        </mxCell>
        <mxCell id="Ac2NSIi3MnS_sZesIx5R-33" value="IntegraciÃ³n Mapas y calculo de rutas" style="text;html=1;align=center;verticalAlign=middle;whiteSpace=wrap;rounded=0;" parent="1" vertex="1">
          <mxGeometry x="643" y="570" width="60" height="30" as="geometry" />
        </mxCell>
        <mxCell id="Ac2NSIi3MnS_sZesIx5R-34" value="" style="endArrow=classic;startArrow=classic;html=1;rounded=0;exitX=1;exitY=0.5;exitDx=0;exitDy=0;exitPerimeter=0;entryX=0;entryY=0.5;entryDx=0;entryDy=0;entryPerimeter=0;" parent="1" edge="1">
          <mxGeometry width="50" height="50" relative="1" as="geometry">
            <mxPoint x="395" y="129" as="sourcePoint" />
            <mxPoint x="459" y="129" as="targetPoint" />
          </mxGeometry>
        </mxCell>
        <mxCell id="Ac2NSIi3MnS_sZesIx5R-35" value="MFA" style="text;html=1;align=center;verticalAlign=middle;whiteSpace=wrap;rounded=0;" parent="1" vertex="1">
          <mxGeometry x="398" y="89" width="60" height="30" as="geometry" />
        </mxCell>
        <mxCell id="Ac2NSIi3MnS_sZesIx5R-37" value="" style="sketch=0;points=[[0,0,0],[0.25,0,0],[0.5,0,0],[0.75,0,0],[1,0,0],[0,1,0],[0.25,1,0],[0.5,1,0],[0.75,1,0],[1,1,0],[0,0.25,0],[0,0.5,0],[0,0.75,0],[1,0.25,0],[1,0.5,0],[1,0.75,0]];outlineConnect=0;fontColor=#232F3E;fillColor=#DD344C;strokeColor=#ffffff;dashed=0;verticalLabelPosition=bottom;verticalAlign=top;align=center;html=1;fontSize=12;fontStyle=0;aspect=fixed;shape=mxgraph.aws4.resourceIcon;resIcon=mxgraph.aws4.secrets_manager;" parent="1" vertex="1">
          <mxGeometry x="332" y="269" width="46" height="46" as="geometry" />
        </mxCell>
        <mxCell id="Ac2NSIi3MnS_sZesIx5R-39" value="" style="endArrow=classic;startArrow=classic;html=1;rounded=0;entryX=1;entryY=1;entryDx=0;entryDy=0;entryPerimeter=0;" parent="1" source="Ac2NSIi3MnS_sZesIx5R-15" target="-6WKzzLJTVQNrHKm3zgj-1" edge="1">
          <mxGeometry width="50" height="50" relative="1" as="geometry">
            <mxPoint x="521.5" y="293" as="sourcePoint" />
            <mxPoint x="548.9949999999999" y="255.40999999999985" as="targetPoint" />
          </mxGeometry>
        </mxCell>
        <mxCell id="Ac2NSIi3MnS_sZesIx5R-41" value="" style="outlineConnect=0;dashed=0;verticalLabelPosition=bottom;verticalAlign=top;align=center;html=1;shape=mxgraph.aws3.kms;fillColor=#759C3E;gradientColor=none;" parent="1" vertex="1">
          <mxGeometry x="332" y="319" width="45.25" height="51" as="geometry" />
        </mxCell>
        <mxCell id="Ac2NSIi3MnS_sZesIx5R-42" value="Secret manager" style="text;html=1;align=center;verticalAlign=middle;whiteSpace=wrap;rounded=0;" parent="1" vertex="1">
          <mxGeometry x="325" y="239" width="60" height="30" as="geometry" />
        </mxCell>
        <mxCell id="Ac2NSIi3MnS_sZesIx5R-43" value="AWS KMS" style="text;html=1;align=center;verticalAlign=middle;whiteSpace=wrap;rounded=0;" parent="1" vertex="1">
          <mxGeometry x="325" y="369" width="60" height="30" as="geometry" />
        </mxCell>
        <mxCell id="Ac2NSIi3MnS_sZesIx5R-44" value="" style="endArrow=classic;startArrow=classic;html=1;rounded=0;exitX=0.5;exitY=0;exitDx=0;exitDy=0;" parent="1" source="Ac2NSIi3MnS_sZesIx5R-42" target="Ac2NSIi3MnS_sZesIx5R-4" edge="1">
          <mxGeometry width="50" height="50" relative="1" as="geometry">
            <mxPoint x="359" y="319" as="sourcePoint" />
            <mxPoint x="409" y="269" as="targetPoint" />
          </mxGeometry>
        </mxCell>
        <mxCell id="Ac2NSIi3MnS_sZesIx5R-45" value="Rol AutoScaling" style="text;html=1;align=center;verticalAlign=middle;whiteSpace=wrap;rounded=0;" parent="1" vertex="1">
          <mxGeometry x="639" y="172.85" width="60" height="30" as="geometry" />
        </mxCell>
        <mxCell id="Ac2NSIi3MnS_sZesIx5R-47" value="" style="endArrow=classic;startArrow=classic;html=1;rounded=0;entryX=0.855;entryY=0.855;entryDx=0;entryDy=0;entryPerimeter=0;" parent="1" source="JkVwLyGTWLXdijpWyfya-4" target="-6WKzzLJTVQNrHKm3zgj-2" edge="1">
          <mxGeometry width="50" height="50" relative="1" as="geometry">
            <mxPoint x="743.5" y="549" as="sourcePoint" />
            <mxPoint x="582" y="460.108407079646" as="targetPoint" />
          </mxGeometry>
        </mxCell>
        <mxCell id="Ac2NSIi3MnS_sZesIx5R-48" value="IntegraciÃ³n BD clientes" style="text;html=1;align=center;verticalAlign=middle;whiteSpace=wrap;rounded=0;" parent="1" vertex="1">
          <mxGeometry x="749" y="509" width="60" height="30" as="geometry" />
        </mxCell>
        <mxCell id="Ac2NSIi3MnS_sZesIx5R-50" value="Event bridge" style="text;html=1;align=center;verticalAlign=middle;whiteSpace=wrap;rounded=0;" parent="1" vertex="1">
          <mxGeometry x="430" y="214.85" width="60" height="30" as="geometry" />
        </mxCell>
        <mxCell id="Ac2NSIi3MnS_sZesIx5R-52" value="" style="endArrow=classic;startArrow=classic;html=1;rounded=0;exitX=0.5;exitY=0;exitDx=0;exitDy=0;exitPerimeter=0;" parent="1" source="-6WKzzLJTVQNrHKm3zgj-2" edge="1">
          <mxGeometry width="50" height="50" relative="1" as="geometry">
            <mxPoint x="523.5" y="396" as="sourcePoint" />
            <mxPoint x="524.2833283177852" y="265.8499999999999" as="targetPoint" />
          </mxGeometry>
        </mxCell>
        <mxCell id="dzg4uFaLURz1kJaoMzaz-2" value="" style="endArrow=classic;startArrow=classic;html=1;rounded=0;entryX=0;entryY=0.5;entryDx=0;entryDy=0;entryPerimeter=0;" parent="1" target="dzg4uFaLURz1kJaoMzaz-1" edge="1">
          <mxGeometry width="50" height="50" relative="1" as="geometry">
            <mxPoint x="100" y="120" as="sourcePoint" />
            <mxPoint x="317" y="119" as="targetPoint" />
          </mxGeometry>
        </mxCell>
        <mxCell id="dzg4uFaLURz1kJaoMzaz-1" value="" style="sketch=0;points=[[0,0,0],[0.25,0,0],[0.5,0,0],[0.75,0,0],[1,0,0],[0,1,0],[0.25,1,0],[0.5,1,0],[0.75,1,0],[1,1,0],[0,0.25,0],[0,0.5,0],[0,0.75,0],[1,0.25,0],[1,0.5,0],[1,0.75,0]];outlineConnect=0;fontColor=#232F3E;fillColor=#8C4FFF;strokeColor=#ffffff;dashed=0;verticalLabelPosition=bottom;verticalAlign=top;align=center;html=1;fontSize=12;fontStyle=0;aspect=fixed;shape=mxgraph.aws4.resourceIcon;resIcon=mxgraph.aws4.route_53;" parent="1" vertex="1">
          <mxGeometry x="173" y="80.69999999999999" width="78" height="78" as="geometry" />
        </mxCell>
        <mxCell id="dzg4uFaLURz1kJaoMzaz-3" value="&lt;meta charset=&quot;utf-8&quot;&gt;&lt;span style=&quot;color: rgb(22, 25, 31); font-family: &amp;quot;Amazon Ember&amp;quot;, Helvetica, Arial, sans-serif; font-size: 16px; font-style: normal; font-variant-ligatures: normal; font-variant-caps: normal; font-weight: 400; letter-spacing: normal; orphans: 2; text-align: start; text-indent: 0px; text-transform: none; widows: 2; word-spacing: 0px; -webkit-text-stroke-width: 0px; white-space: normal; background-color: rgb(255, 255, 255); text-decoration-thickness: initial; text-decoration-style: initial; text-decoration-color: initial; display: inline !important; float: none;&quot;&gt;us-east-2&lt;/span&gt;" style="ellipse;shape=cloud;whiteSpace=wrap;html=1;" parent="1" vertex="1">
          <mxGeometry x="173" y="-100" width="120" height="80" as="geometry" />
        </mxCell>
        <mxCell id="dzg4uFaLURz1kJaoMzaz-4" value="" style="endArrow=classic;startArrow=classic;html=1;rounded=0;entryX=0.383;entryY=0.92;entryDx=0;entryDy=0;entryPerimeter=0;" parent="1" target="dzg4uFaLURz1kJaoMzaz-3" edge="1">
          <mxGeometry width="50" height="50" relative="1" as="geometry">
            <mxPoint x="219" y="80" as="sourcePoint" />
            <mxPoint x="470" y="40" as="targetPoint" />
          </mxGeometry>
        </mxCell>
        <mxCell id="dzg4uFaLURz1kJaoMzaz-6" value="&lt;font style=&quot;font-size: 19px;&quot;&gt;us-east-1&lt;/font&gt;" style="text;html=1;align=center;verticalAlign=middle;whiteSpace=wrap;rounded=0;" parent="1" vertex="1">
          <mxGeometry x="293" y="458" width="97" height="51" as="geometry" />
        </mxCell>
        <mxCell id="U2aRp7d5ERU7_1nGRkAy-1" value="" style="sketch=0;points=[[0,0,0],[0.25,0,0],[0.5,0,0],[0.75,0,0],[1,0,0],[0,1,0],[0.25,1,0],[0.5,1,0],[0.75,1,0],[1,1,0],[0,0.25,0],[0,0.5,0],[0,0.75,0],[1,0.25,0],[1,0.5,0],[1,0.75,0]];points=[[0,0,0],[0.25,0,0],[0.5,0,0],[0.75,0,0],[1,0,0],[0,1,0],[0.25,1,0],[0.5,1,0],[0.75,1,0],[1,1,0],[0,0.25,0],[0,0.5,0],[0,0.75,0],[1,0.25,0],[1,0.5,0],[1,0.75,0]];outlineConnect=0;fontColor=#232F3E;fillColor=#E7157B;strokeColor=#ffffff;dashed=0;verticalLabelPosition=bottom;verticalAlign=top;align=center;html=1;fontSize=12;fontStyle=0;aspect=fixed;shape=mxgraph.aws4.resourceIcon;resIcon=mxgraph.aws4.cloudwatch_2;" parent="1" vertex="1">
          <mxGeometry x="725" y="224" width="45" height="45" as="geometry" />
        </mxCell>
        <mxCell id="U2aRp7d5ERU7_1nGRkAy-3" value="CloudWatch y CloudTrail" style="text;html=1;align=center;verticalAlign=middle;whiteSpace=wrap;rounded=0;" parent="1" vertex="1">
          <mxGeometry x="679" y="198" width="161" height="30" as="geometry" />
        </mxCell>
        <mxCell id="U2aRp7d5ERU7_1nGRkAy-4" value="" style="sketch=0;points=[[0,0,0],[0.25,0,0],[0.5,0,0],[0.75,0,0],[1,0,0],[0,1,0],[0.25,1,0],[0.5,1,0],[0.75,1,0],[1,1,0],[0,0.25,0],[0,0.5,0],[0,0.75,0],[1,0.25,0],[1,0.5,0],[1,0.75,0]];outlineConnect=0;fontColor=#232F3E;fillColor=#8C4FFF;strokeColor=#ffffff;dashed=0;verticalLabelPosition=bottom;verticalAlign=top;align=center;html=1;fontSize=12;fontStyle=0;aspect=fixed;shape=mxgraph.aws4.resourceIcon;resIcon=mxgraph.aws4.redshift;" parent="1" vertex="1">
          <mxGeometry x="745" y="296" width="76" height="76" as="geometry" />
        </mxCell>
        <mxCell id="U2aRp7d5ERU7_1nGRkAy-10" value="RedShift" style="text;html=1;align=center;verticalAlign=middle;whiteSpace=wrap;rounded=0;" parent="1" vertex="1">
          <mxGeometry x="753" y="369" width="60" height="30" as="geometry" />
        </mxCell>
        <mxCell id="JkVwLyGTWLXdijpWyfya-1" value="" style="image;aspect=fixed;html=1;points=[];align=center;fontSize=12;image=img/lib/azure2/management_governance/Monitor.svg;" parent="1" vertex="1">
          <mxGeometry x="493" y="549" width="64" height="64" as="geometry" />
        </mxCell>
        <mxCell id="JkVwLyGTWLXdijpWyfya-2" value="" style="sketch=0;html=1;aspect=fixed;strokeColor=none;shadow=0;fillColor=#3B8DF1;verticalAlign=top;labelPosition=center;verticalLabelPosition=bottom;shape=mxgraph.gcp2.maps_api" parent="1" vertex="1">
          <mxGeometry x="589" y="537" width="43.31" height="71" as="geometry" />
        </mxCell>
        <mxCell id="JkVwLyGTWLXdijpWyfya-4" value="" style="outlineConnect=0;dashed=0;verticalLabelPosition=bottom;verticalAlign=top;align=center;html=1;shape=mxgraph.aws3.users;fillColor=#D2D3D3;gradientColor=none;" parent="1" vertex="1">
          <mxGeometry x="736" y="549" width="66" height="63" as="geometry" />
        </mxCell>
        <mxCell id="QVwr18ejtbTyHOhvzsr3-1" value="" style="shape=image;verticalLabelPosition=bottom;labelBackgroundColor=default;verticalAlign=top;aspect=fixed;imageAspect=0;image=data:image/jpeg,/9j/4AAQSkZJRgABAQAAAQABAAD/2wCEAAkGBwgHBgkIBwgKCgkLDRYPDQwMDRsUFRAWIB0iIiAdHx8kKDQsJCYxJx8fLT0tMTU3Ojo6Iys/RD84QzQ5OjcBCgoKDQwNGg8PGjclHyU3Nzc3Nzc3Nzc3Nzc3Nzc3Nzc3Nzc3Nzc3Nzc3Nzc3Nzc3Nzc3Nzc3Nzc3Nzc3Nzc3N//AABEIAJQA7gMBEQACEQEDEQH/xAAbAAABBQEBAAAAAAAAAAAAAAAAAQIDBAYFB//EAEsQAAEDAgMFAwcHBgwHAAAAAAEAAgMEEQUSIQYTMUFRYXGRFCIygaGx0SMzQlSTweEHFlJTYnIVJERjgoOSosLS8PEXJTRDZHSU/8QAGwEBAAIDAQEAAAAAAAAAAAAAAAIFAQMEBgf/xAA1EQACAQIDBAcHBAMBAAAAAAAAAQIDEQQhMQUSQVETFTJSYZGhFCJCcbHB8COB0eEGM1ND/9oADAMBAAIRAxEAPwD3FACAEAIAQAgBACAEAIAQAgBACAEAIAQAgBACAEAIAQAgBACAEAIAQAgBACAEAIAQAgBACAEAIAQAgBACAEAIAQAgBACAEAIAQAgBACAEAIAQAgBACAEAIAQAgBACAEAIAQAgBACAEAIDlY5jUGEQl0hzSu9CMHj+C4sZjYYaPN8jswmDniZ2jpzMj+d2KyAybyGGLl8nf1a8VS9Z4l5tpfsXnVOGj7tm38yMbZV31pv2DfisdZ4rn6In1PR7nqxfzyrvrLPsR/mWetMTz9F/JjqWj3fV/wADm7Z1n1hp/qR/mWVtWvfX0/sw9i0uEfV/wdCDbqIsG9gJd1DrArsp7WvZOOf54nHU2JNO6kabCqyathMs1K+nBtlD3A5h10VrSnKavKNior0oUpbsZXLy2mkEAIAQAgBACAEAIBCbBAc3E8XgoYc7flnk2DGEXXFisZChDeSudVDCTrStocpu1redBMO54K4I7ZvrTfmdvVD76F/O6DnRVHqsp9cR402OqJ99DhtfS86Sr/sg/esrbFPuSMdUVO8vUUbXUZH/AEtZ/YHxWeuKfcl5f2Y6ord5fn7Cja6g/UVf2Y+Kytr0u7Ly/sdUV+a8x/524d+hU/ZqfWtHuvyI9U4jw8w/O3DLamcdpjKz1pQ438h1TiPDzAbW4TzmkH9WUW1sLzfkw9k4rl6oX87sH+sOHfGVnrXC970f8GOqcX3fVC/nbg/1o/Zu+Cx1rhefo/4MdU4vu+qFG1eDH+WW/oH4LPWuE73o/wCB1Vi+79CpiW2OHwQnyN5nlI83QgA9t1pr7WpKP6WbN1DY9ecv1PdRiaieSskfWV8jnXPBxsXdncqOcpTlv1M3+eh6GEI0l0VJfn8lKaV1UbEZYx6IGlgtWjz1OuEFTXiK+nkjphO6N4gJsHuGnitqo1ZR3knY1uvT3t26uJHEZTliAkdxs2yksJXekCEsVSjrIuw4LXzWMdI9ynHAYp/CantHDR+MvU+yWKTvYHxCFmYXJI0F+9dNHZldu8jlq7Yw8U913Z6bGABZugAsB2L0iVsjyXiPWQCAEAIAQAgBACAQ8EByNqap1NhEuQ2c6zePiq7alV08NLd45Hbs+kqtdJnl0MkjwXbw6nS3ReVlGMcrHtJRisrEueobwmcsKRHdg9UIZqkH55yzvDo6fIPKKrlM5N7x+o6Kl3Q8qqv1x9qlvvm/MdDT7oeV1X6w+KxvPm/MdDS5D/K6v9asqpJcWY6GlyE8sqr/ADnsTpJc2Y6CnyF8uq7+mPBSVWS4j2elyDy+r/THgpe0VO99B7PS5B5fV/pDwT2ip3voPZ6Qhrqo8SP9epYdab1kPZ6Y3yyoPEBOln3jPQQIJHSTG8riexQcs7m2EYw0FA8FC5lmwx+Jv/D+Cme0eeIhZ3aQT969pgqW9QpwfJHiMVWcMTVqp6XMPHhcDBYNFuxpVysJSXwopJbXr3vvPy/svU1K2KxjcW26OcPvU1hafI0y2rWfxeh1IMSrqYBsdU8Aci8n3hS9lhyOeW0qreq/P2L0W0mIM0zMf32WHhKZHrGr4F2LaqrHpQtPc5QeDhzNi2lPii/TbUZj8rSuDRqTfgFqlg7LJm+ntBS1RpIpGyRte1wLXC4PVcbVnYsk09B6wZBACAEAIBDwQGS2/qRHRRMudcz/AAFvvVHtqWUIc3cuti096q2YGlnYIgAHcOioakHc9TUg7lprs7bgGwNtVqcbGp5OzGmyGSB0sYcW31HYVNQdrm1RbVwa9riQ03IFzom6w1bUXM3t8EsYsJvWAgF3Hhos7rM7rYu8YSADqexYszG60KHBYsLA5zQLk2CylcJMbvGfpBN1md1jrhLGEJcdQiRkQPaRcOHijTDQo85wa3VzjYAcysxg5NJcTDaSbZrNqJIJsPwhlPLG8MlcbxuDvRjLTqOlwvoODh78VyPm+Oq/pTlz/k4jT2nxVyeYuwlN90ON8/sy/FZSIzd7fv8AY1+z2D0FZhUctRBme5zvOJ14qsxFacalosusJhaNSipSRdfsrhb+Eb29zytaxdXmbns6g+BmNtMMbgNBHV0rTKwvyvDz6N+Fl1YbEyqS3ZFfjcHChDfgcPBcQbVt3zWGJ0Z85t7iy6npY4YNKV+RvdlqiZ++p3PaYY/OaD6Qza+F7qsxUIr3i9wM5u8XovuaMLlO8EAIAQAgEPBAed/lIqP4yIgdGxhvrJv7l5rakt7FqPJfn2PU7Ap+5vc2ZajYMguquo7svKrdy+wAQ97/AHLQzmlnIZexREisG5pX6Dotrdkbr2iTRNA3htwYotmubvZEeqEyB4G9YOgK2rss2J5MliaDMzvUDXNvdY4gXNuCwYWhDUj5MDq4KcNTZDUQxi3DVLhyZYlsHkAWsB7lFmqGhEbZXE8mn3LMdSYyNgyN0HBZcsyTbuXsJYDiMA5CRpPqIK34Rb1eC8Tjxs7UJvwObskN47EJjzcSO8k3X0ikluw+R8rxM8qvzO3wXUVVxsvGK/8AOf4ERGXD9/sXqDaqaix3B8HiLdy8nykPGpznzbHs4+pUGPq7ldJF1hMQ4whE9LbdYLc422VGK7Zqvitq2IyN726/cttCW7UTOXGQ36EkeP7MT7vEHxk3bK0i3uVzLU83HtI9E2Yqd1XQsJPngxHtI4e5ceKheDZaYCpaaX7eRtxwVaXQIAQAgBAI7ggPJttp9/jMw5byw7gAF5HEz38VUn+3lke22PT3MPH5fUoQDKzuXDJ5nbN3Za4Qs7SStbNHxMiKInwIYtXvPaVsmbJaImj+bl9QUWa5dpIjKyTK7vnx+6tvwmxdkmh+eA6C6gQn2QWAQzm4YP2lOPMnDiP6DtCwYZJKbvd3qJCHZIn6RydrbKcdSS1QR+iO5Repl6l7DdKgyco2PcfUwrv2bG+Jj4ZlbtSVsNL84nN2MH/KKmT9KbL7GlfRoqzivA+V15Xg/Fs7BW44AkGYMLRmLM9xbrb4Ig+BjNpakxbX0xaQMkTDe+vBeb2uvfbRYUf9Fz2vB9qMLlpYI566JlQGAPbIbG/rU6EJzpRmkWlPGUbJSlZnWNXRVUbo2VMEjXgtIbIDcFTtKObR0KpTmrJpng1LDNR4tHmbl3cgzXIF7FWTxdFas8pKLh7r1TN1RTbmcPadGubIPUdVtmlKJ1UZ7srrmelNN2gjmFTaHpRUAIAQAgGTP3cb3ng0ErEnupszFXaR4xijnT4kXanme+/+y8Sn7rlzbPoGGW5RSJGjze1aDD1JjpFGP2b+1RZrXaZG7iiJkFPwJ6krZM2SJ2aQvPVwUWapdtEROiybEQEXmkI5AD2LZ8KNi7KJ4dHOPRpUTXLOwz4rBIim1kYO9bF2ScdGSM1kYO1R4EXkhzjck9SsEYrIim+aI6uAU4LMku0PadFBg6GF0UuINrKaneGSSUsjWk8nEWCttjx/Xb8Cm2zK1C3iits7STUOAiGpjMcwmcJGnqCW/cF7rDSc7yfNnzjaUI01GEeSLd9V1lUA94QDZo4pm5Zoo5WjgJGB1vFQnThNWmrozvNKxHJR0UjbSUcbuVxcFaY4WnBWhkuXDyJdJzRz48FNJUsqcPrp6aVmrXAcPD3LNXDupG1zMayi95ZMsYlSSYlMyaZ9PFJltIWB2WQ9cv0fFcU8HXj2GjZVrU60lKWv1OnSkgtblAbkyaOvYclYRUlBKWpCLTl7uh6RgtSKrDYH/SDA1/Y4DVVFWLjNo9Jh579NMvLWbwQAgBAMljbLG+N17OBBsoyipRcXxMxbi7oz1Rsfh5iAgMjJB9NxzZu9Vs9lUNzdjkWcNrV1K8s0Z7Edma2lu5jRKwc2fBU+I2VWpP3c0WtDalKpk8mceZjmhrSNWi1iq2cXF2kWFOcZZorSXAJ7EVjfHNkcALYmnnZSk7sm9SYfMAdSVFmv4yJ6yjZEhjHykh6lbJaJEnkkTMFmyd33qBCWqGFZRIidrMOxo95U/hJrJEkfz7PH2KPAhLshfRYMpEctzlHVynHRmY6se3goMwajYdl6uoeRo2MDxd+CvdixznL5Hntuy92EfEhxKQyTzPeb5p327r2Xt8PG0EvBHzjGy3qj+b+pQyt6u8FvOKyCzRzd4IMgs0/T8Qgy5jf6Q7UMPwEseRHihhoab9PBZI2J6cnMOWoNlCWhup5NG62RfehqAeVQeHa1v4qqxfbXy/k9BgH+m14nfXMdwIAQAgBACATKEBz8RwihrmnfQNzkWzt0K5q2FpVl76OijiqtF+6zzjaahkwisNOSHRubmY48wvMYrB+z1d3hwPW7PxMcTS3+PE4ZrHAWaG6clo6JPU77RejEjxB8j9zlY22pcbgD2FbYYWMtZWK/F4yFB5Zv5/0y0/PyqaE98j/8i6VgKX/Vfn7nEtsP/n6/0QATNvlqMOdf/wAhw/wqTwNJ/wDqiXXD/wCfr/RIzyixvLh9jx/jY+8KLwFPhURjrhPWn6/0PDJD/wB6h/8AqasewR/6Il1xHuPzQzcy5y7e0BP/ALbVn2FWt0kfMz1yu4/NDhHMHAh1ETwsKtnxWPYOVSPmOuIvJwfoUa6uNE/JLTveSLgwua8eIKjLASj8aOuhtCnVdtPmLhlUzE8QFILU4DC/fT6M5aad/sWylgHL40K+0KdFXWfyO83CmE5RiuGjoTI74LZ1S3/6I43tumvgfp/IUdfVYJVSxMnpnB7hpFI2XOOWlgRbXge8aKxwdH2aLg3mymx2L9qmpWskTVEge0Em9y92nDVxXsKeh4OvO7z8fqVsw6rZc57oaXga39qwN5C52uaWgjXmOKDfQmcON7EIYuBshnIB2ICWAnP6wsSJwZt9jjeGsB/WNP8AdVVjO2vl92X+z9JfP7GkXKWIIAQAgBACAEAjuSA87/KZLFHUU5kkLI3RFhe1uZzSTe4HP8VQbTW9Xhbgi1wdedPCVXS7Ss/t+fIw+LGlZXQNppZHTGJoEAZcPH6Rd1XDS3nTbkrK+pq2Vj8Q66U3dZ3vp8zr4ZhNXlfJK1sQc4mx1sFzVHvNbiucGOqKpiJSvfMWoiwqDzarE4mnoZ2tPvRUa70RpU7aRI2UmG1elFiTXn+bma72LLjWjrH0JOpzj5EU1BVUwuPlWjmNCo76eqsa3Le7LIWSXuDx5go0aHUnF6kgN1DQx00uYHgTa9uxL3MqpUejEbG+QtayNxJ6BTukSUqpHUwywkbyN1idDZSi09DLnV5lR77NOZuna1bEuRqlOqlmdHZprXYg2WOwdEMwI5aKe9KDVnZmuFaWbOk+KBx1gjPqWv27ErSo/M53FS4DDBTfV4/BZ6wxX/R+bHRx5DXQUoF3QQtHV2iysZjH8bfmTVC+kRGRUb2ktgid+7ZFjcXD4n5sx7NZZxHeSMJ+QlMRtweS5h+8K2wP+Q16btW95HLUwkZdlWZFvHRvMU7Cx/vHUHmvZ4XE0sTBTgyumpU5bskSi1lvJJkkPpeHvWGThqbjY0fJVn77fcqvGdqPy+5f7P0l8/saVchYggBACAEAIBHcEByMQnkllc2mqMm6Hni3NcVWUpytTna2pqk3f3TE4rUR1c1p2tnfoGhwuvL4mvOpU3m8zijjq0LqLKtW6gwSAVc8LPKHi0UbR5zvgO1Tp0pS7efh/JuhVqSg03kzP1NRX48SHzOhp7+jHo38VulUjSytdl9gdj1Ki36vur1KcOzVLEQX3dc68uaxPHVWX1PZeEh8JHVbO0shYYW7sjUc9VKnjai7TuZq7Jw01kiSlq8XwRjS5/lVHfzo3uuQOtzwWzeo18krSKDG7GnSTnDNfQ7T20+LUPl+GEhzdHxEWc09CFyzpOm7cPzNeH0KCpHOzOXDUkmx5LEqdjjeR38FcPJJiQDeUce5a2knmuX3MqbSyZbMnmMs1vDktc0kkHVlzGZyT6IUUkY6WfMgqGh9DO3dsu7MALceK2xtGz8R0kmszl7HUNZQU9W+sADi0NjGYGy68RWpzzhwTCskdCqqIaSndUVUjY4mcSePcOp7Fw0qU6r3Yk4QcnZGakxTE8YkdHhoFHTt9KU+mR3/AAVn0VDDK885F/gNjyr+81Zc2U3bOMe8urp5J3cQXkn3qXt7S9xWL+lsShFe9mWH7PU8bG+SOdGQbg+rsUI42d/fWR108DTowcKeSebTNxsxUUtfQjC8YDI65vmU9Vyk00Dj17+PeuqHs2KW5LKXA87tHZTi3USy8CiySKujdTykxSQvLSHelC8G1u0XWjCYqvgKlou55XE4aM1Z6ETWujcY5HkPabEaLun/AJLiou24vU4VhoLImZ84xu9cMxtcAfBRX+SYqWW6kbFQgjQ7PVjqGvj+Ue6KUhshcRbhobDtU47Tq1qsek08vzM7cK1Sl4M344K2LYEAIAQAgBAIUBjK82qql2trusR3rzmJ/wBkv3KqpNqTtzOdh8W+cCWBxc4Bug4/60XDh6anrxf556Eaac5WK+2mC4f5bTxtL31jm3ku8kAcgBy1uV345Rw8Ywj2nqer2RgoSl0s1lE5z3RUkLWRCz7Wc7oqqTWizZ6WEZVHd6FNu8nedzDJJrru2kj1kLW7LVm5zjHVjS3Uh7HNcDYgi1ln5ElNPRjixsrTDNbK4W15fgp0nZ+JCemQ7ZHBZo8afHHLljlu3L1FiRfsuCL9o6q2oQ9qVr2aPL7VwNKN6i4/U09P+T1lRUT1FXPJTuc+7WREEHtXRS2dJxaqZcvkeejhu8VcQwmLA5XUkUr5GuIfd9r6hVuOoRoVVFO+n3OfEU1DJFIkZWi/ALgedjnGki2pCXQGvcN1a449ViUk42MD6YXoTbi+S11O36dlxJU4t5IzFYP4drTG11qWB+Vjc2rv2rdT19SsE/Z6atqz3NDYUcP0bqO7au+S8DqCnjoYBExoDmnUDgPiuSbzvLNl5TXBaFaR4zamx6c1FJm6+6ITlLc4c2/o5m2uiV9DClF6MtwSRyh8M40cCLkKcHnn+M11I5XiXNnMAnr8QqAzEGslYc9pGZ9608bm+varCjR9qbTlaX5meO2ts1wqKpT7L4E2K0rqeodvQRJE7dvseI5FV+IpyjdSWaPN1obk2Vmhpew3IsbgFc0HaRBnTpXx5oc0rWt3jbuPIXVhRs1C75E462PTWWygg3FuK9WXI5ACAEAIAQCOQGQxKgq45pWtiklBuQ5jSQVQYmhUUnZX/GVtWhJSyH7PYfOyriM0MjGx+cczSNeXt9yzgMPNVFvRtb8+/obMNScZXaM9jkhfjlfM7UtdlaSOFhZcG0Km9iZt8Mj3WBpbuGhFcTj0tP5bWCBziGWLnkdP91wykoQ3md9er0VO61NHTwspImxNBs0Gyq5zlUd2VUpOb3mMfBE+OQyMaS7Q6cVKM2mrGVJxtYzs7crpWMeHbp2XN1H+tPUrNaJ8y2pS3oq50dmp3x49QuBuXPyeo8VZbOlaurcTg2lTUsNPwPVR3L1Gp5BEUlLBM7NNBE88i9gK1ypwk7yjcOKGfwfR/U6f7NvwUegpd1eSMbkeQHDqI/yOD7MJ7PS7q8kNyPIacMoTxo4Pswns9HuryQ3I8jJ/lHwoR7Oy1OHsEDodZDHpdnNcuJwtPd3oxWRYbMVKOJi5RuYnCKBuHwwseM0rmNme4dHMa4D+8VTYn/ZZ8Mz1k6rrOU+F7eTaGVEl3PkN+PvXH2nc3O0InfpqOmjpCzLmu0El41d0VfVqyc8tCpqVJyle5O7dyQ7tzA69hlI0stcZOMr3Nd2ndMzU9LLSODJHB2mZrh07VZRmpreRa0ayqRud3ZOqczG6G30nFju0Ef7KxwE7YiPkcO06V8PPwzO1trTBtWJDcCeLUXtq1b9qRjCrfmvoeExkLq6MvHELtcxr7tNwdVSpSeaRxbjOrTQ1EkYDIpnnsaSu+lCTgluvyJqEnwPSIQRCwEa5QvUx0LdaEiyZBACAEAIAQCW6oBCEB5ttNCYMXq22tnOcLyO0obuIlbjmet2bPfw8fDI5GEvLMSjs8BsjS035ka2964a8b0HkdeLScDRG4cNdXAcVVIqxCQ0uz6cws2voDP1gbvat8bQ1t2s05u1J96tacWqSuWeHulFPxJNmGGfaCgY292SZj3BWOz4N14mvaM1HCy8T1tvEleqPGDkAIAQAgIqiCOohkhmYHxyNLXNPMFYavkZTcXdHlGN0n8G4nLRBznMiY2NhdqcoaMv92w9S8tjoblZnscBU6bDxmc6lc2OeJ7rZWygm/Q3C4pJuErHXXTlTdjRZmuDQwC/M3vdVe61qVFmhzc97taLjqsOxhs4mKTmWqkaW/MsN3HmXWsPYrLDU92lvHfhY7sb8ybZmmkrMWpImNN2ytkJvazWm5XdgqbqV4pfMbQqKnQlKXK3metZAbEtFx1XqzxfAcG2QC2WQKgBACAEAIAQAgBAIUBkttMJnlP8ACFM3OWMyyM5kdQqbauDlU/VjwLrZWMhT/RqcXkYJ1tbatOunEHkQqCMranprN6lunxWYSgzhr2gW80WJPUrRPDU2vdOWeCi+yx1bWmsYWOJijJuXZ/O7gApUKEYZsxDDbjzzKNTUNORjBkiZ6Iv4k9pW9+8zphBq7erNr+TzCXxNlxGojc18nmQl/HLzNvvXoNl4ZwTnNWZ5zbOKU5KlB5cTbDirYpBUAIAQAgEJsgMN+USGnbJTVTXNFS27Szm5vI+pUu1qKlFTWpe7FruLdN6PT5mGDwCSWhwOjmnmFSRdmektdZF2hrzRxNhAzxgmzgRmF+o59611qEanvJnHUwu+7oHYvKXyNZHYfRc4+9QWGhldmFgu8UpJszSLk3OZznfSd+HRdLeVo6HXCCibj8nVA8Omr5Ijlc0Mjc722Vzsqg43qP8AY89tqvGVqUX8zdA9VclCKsgEAIAQAgBACAEAIAQAgIap4ihfIbHKOHVRk7K5KC3pWPMcYw6beyTQsAzOzZWtt4LzuIwDlNzjx4HrMJit2KhJfucUtc0EPaW2NtRZcFShODzRZxnGSyZXjqN8/LHdx6NaVlYafISnCPEvU+HTucHlha4G9iF20cK1nJHFXr7ytBnp2zFbLV0LG1LXCeIZXX5jkVf0JOUczyeJp7k8jtLcc4IAQAgBAVq+oNNTvkaLuA0CjJ2VyUIuTseb4pQ1NfVOnqXl7ib6jgq2pHfeZcUVuJM5VZhk0TS9jM1uKrq2Ds7xZb4fGXVpI5WbUh4tbjm0XJKlKJYRnGWg0SF793GAXcrFFSk+BlyS1NnshsrHiLjV4kLwsNmwg+mf2uxWeCwF/fqFJtLabpro6Or4norImsa1rQGgcA0WsrtHl7D1kyLZZAqAEAIAQAgBACAEAIAQEFUA5mVwuFGSuTp63Ku5jsPNChZG9ydxjqWFwsY2nvCjuozvy5jRSQDURMB7gm6jPSS5j3RMIALRp2LNkRUncmo2tjks0WuNVKKsQq5q5dWw0AgBACAEBXrGNeyzhcKEzZTyZR3EZ+iPBQUUdG/K2o80kGTKY2kdyOCI9JLmQuw6kcDmgjN+rQounHkbOnqcwbh1I112wMB/dCyoJGJV6ltS/SRsiBDGgDsFlsikjmqSctSyFM1ioAQAgBACAEB//9k=;" parent="1" vertex="1">
          <mxGeometry x="316" y="556.75" width="78" height="48.5" as="geometry" />
        </mxCell>
        <mxCell id="j05cE68j0EDophUvRji--2" value="1" style="text;html=1;align=center;verticalAlign=middle;whiteSpace=wrap;rounded=0;fillColor=#dae8fc;strokeColor=#6c8ebf;" parent="1" vertex="1">
          <mxGeometry x="109" y="90.27" width="20" height="15.15" as="geometry" />
        </mxCell>
        <mxCell id="j05cE68j0EDophUvRji--4" value="2" style="text;html=1;align=center;verticalAlign=middle;whiteSpace=wrap;rounded=0;fillColor=#dae8fc;strokeColor=#6c8ebf;" parent="1" vertex="1">
          <mxGeometry x="173" y="55.57999999999999" width="20" height="15.15" as="geometry" />
        </mxCell>
        <mxCell id="j05cE68j0EDophUvRji--5" value="3&lt;span style=&quot;color: rgba(0, 0, 0, 0); font-family: monospace; font-size: 0px; text-align: start; text-wrap: nowrap;&quot;&gt;%3CmxGraphModel%3E%3Croot%3E%3CmxCell%20id%3D%220%22%2F%3E%3CmxCell%20id%3D%221%22%20parent%3D%220%22%2F%3E%3CmxCell%20id%3D%222%22%20value%3D%221%22%20style%3D%22text%3Bhtml%3D1%3Balign%3Dcenter%3BverticalAlign%3Dmiddle%3BwhiteSpace%3Dwrap%3Brounded%3D0%3BfillColor%3D%23dae8fc%3BstrokeColor%3D%236c8ebf%3B%22%20vertex%3D%221%22%20parent%3D%221%22%3E%3CmxGeometry%20x%3D%22109%22%20y%3D%2290.27%22%20width%3D%2220%22%20height%3D%2215.15%22%20as%3D%22geometry%22%2F%3E%3C%2FmxCell%3E%3C%2Froot%3E%3C%2FmxGraphModel%3E&lt;/span&gt;" style="text;html=1;align=center;verticalAlign=middle;whiteSpace=wrap;rounded=0;fillColor=#dae8fc;strokeColor=#6c8ebf;" parent="1" vertex="1">
          <mxGeometry x="293" y="131.85" width="20" height="15.15" as="geometry" />
        </mxCell>
        <mxCell id="j05cE68j0EDophUvRji--6" value="4" style="text;html=1;align=center;verticalAlign=middle;whiteSpace=wrap;rounded=0;fillColor=#dae8fc;strokeColor=#6c8ebf;" parent="1" vertex="1">
          <mxGeometry x="542.5" y="79.85" width="20" height="15.15" as="geometry" />
        </mxCell>
        <mxCell id="j05cE68j0EDophUvRji--7" value="5" style="text;html=1;align=center;verticalAlign=middle;whiteSpace=wrap;rounded=0;fillColor=#dae8fc;strokeColor=#6c8ebf;" parent="1" vertex="1">
          <mxGeometry x="580" y="195.26999999999998" width="20" height="15.15" as="geometry" />
        </mxCell>
        <mxCell id="j05cE68j0EDophUvRji--8" value="6" style="text;html=1;align=center;verticalAlign=middle;whiteSpace=wrap;rounded=0;fillColor=#dae8fc;strokeColor=#6c8ebf;" parent="1" vertex="1">
          <mxGeometry x="632.75" y="270" width="20" height="15.15" as="geometry" />
        </mxCell>
        <mxCell id="j05cE68j0EDophUvRji--9" value="7" style="text;html=1;align=center;verticalAlign=middle;whiteSpace=wrap;rounded=0;fillColor=#dae8fc;strokeColor=#6c8ebf;" parent="1" vertex="1">
          <mxGeometry x="716" y="303.85" width="20" height="15.15" as="geometry" />
        </mxCell>
        <mxCell id="j05cE68j0EDophUvRji--10" value="8" style="text;html=1;align=center;verticalAlign=middle;whiteSpace=wrap;rounded=0;fillColor=#dae8fc;strokeColor=#6c8ebf;" parent="1" vertex="1">
          <mxGeometry x="562.5" y="372" width="20" height="15.15" as="geometry" />
        </mxCell>
        <mxCell id="j05cE68j0EDophUvRji--12" value="IntegraciÃ³n sistema monitoreo" style="text;html=1;align=center;verticalAlign=middle;whiteSpace=wrap;rounded=0;" parent="1" vertex="1">
          <mxGeometry x="10" y="228" width="60" height="30" as="geometry" />
        </mxCell>
        <mxCell id="j05cE68j0EDophUvRji--13" value="" style="image;aspect=fixed;html=1;points=[];align=center;fontSize=12;image=img/lib/azure2/management_governance/Monitor.svg;" parent="1" vertex="1">
          <mxGeometry x="77.5" y="207" width="64" height="64" as="geometry" />
        </mxCell>
        <mxCell id="-6WKzzLJTVQNrHKm3zgj-1" value="" style="sketch=0;points=[[0,0,0],[0.25,0,0],[0.5,0,0],[0.75,0,0],[1,0,0],[0,1,0],[0.25,1,0],[0.5,1,0],[0.75,1,0],[1,1,0],[0,0.25,0],[0,0.5,0],[0,0.75,0],[1,0.25,0],[1,0.5,0],[1,0.75,0]];outlineConnect=0;fontColor=#232F3E;fillColor=#E7157B;strokeColor=#ffffff;dashed=0;verticalLabelPosition=bottom;verticalAlign=top;align=center;html=1;fontSize=12;fontStyle=0;aspect=fixed;shape=mxgraph.aws4.resourceIcon;resIcon=mxgraph.aws4.eventbridge;" parent="1" vertex="1">
          <mxGeometry x="482" y="190.85" width="78" height="78" as="geometry" />
        </mxCell>
        <mxCell id="-6WKzzLJTVQNrHKm3zgj-2" value="" style="outlineConnect=0;dashed=0;verticalLabelPosition=bottom;verticalAlign=top;align=center;html=1;shape=mxgraph.aws3.lambda_function;fillColor=#F58534;gradientColor=none;" parent="1" vertex="1">
          <mxGeometry x="490" y="352.85" width="69" height="72" as="geometry" />
        </mxCell>
        <mxCell id="bGE7AOWuLVwoPFe066m--1" value="" style="endArrow=classic;startArrow=classic;html=1;rounded=0;" parent="1" target="-6WKzzLJTVQNrHKm3zgj-2" edge="1">
          <mxGeometry width="50" height="50" relative="1" as="geometry">
            <mxPoint x="370" y="550" as="sourcePoint" />
            <mxPoint x="535" y="435" as="targetPoint" />
          </mxGeometry>
        </mxCell>
        <mxCell id="bGE7AOWuLVwoPFe066m--2" value="Single car" style="text;html=1;align=center;verticalAlign=middle;whiteSpace=wrap;rounded=0;" parent="1" vertex="1">
          <mxGeometry x="251" y="565.5" width="60" height="30" as="geometry" />
        </mxCell>
        <mxCell id="bGE7AOWuLVwoPFe066m--3" value="" style="shape=image;verticalLabelPosition=bottom;labelBackgroundColor=default;verticalAlign=top;aspect=fixed;imageAspect=0;image=data:image/jpeg,/9j/4AAQSkZJRgABAQAAAQABAAD/2wCEAAkGBwgHBgkIBwgKCgkLDRYPDQwMDRsUFRAWIB0iIiAdHx8kKDQsJCYxJx8fLT0tMTU3Ojo6Iys/RD84QzQ5OjcBCgoKDQwNGg8PGjclHyU3Nzc3Nzc3Nzc3Nzc3Nzc3Nzc3Nzc3Nzc3Nzc3Nzc3Nzc3Nzc3Nzc3Nzc3Nzc3Nzc3N//AABEIAJQA7gMBEQACEQEDEQH/xAAbAAABBQEBAAAAAAAAAAAAAAAAAQIDBAYFB//EAEsQAAEDAgMFAwcHBgwHAAAAAAEAAgMEEQUSIQYTMUFRYXGRFCIygaGx0SMzQlSTweEHFlJTYnIVJERjgoOSosLS8PEXJTRDZHSU/8QAGwEBAAIDAQEAAAAAAAAAAAAAAAIFAQMEBgf/xAA1EQACAQIDBAcHBAMBAAAAAAAAAQIDEQQhMQUSQVETFTJSYZGhFCJCcbHB8COB0eEGM1ND/9oADAMBAAIRAxEAPwD3FACAEAIAQAgBACAEAIAQAgBACAEAIAQAgBACAEAIAQAgBACAEAIAQAgBACAEAIAQAgBACAEAIAQAgBACAEAIAQAgBACAEAIAQAgBACAEAIAQAgBACAEAIAQAgBACAEAIAQAgBACAEAIDlY5jUGEQl0hzSu9CMHj+C4sZjYYaPN8jswmDniZ2jpzMj+d2KyAybyGGLl8nf1a8VS9Z4l5tpfsXnVOGj7tm38yMbZV31pv2DfisdZ4rn6In1PR7nqxfzyrvrLPsR/mWetMTz9F/JjqWj3fV/wADm7Z1n1hp/qR/mWVtWvfX0/sw9i0uEfV/wdCDbqIsG9gJd1DrArsp7WvZOOf54nHU2JNO6kabCqyathMs1K+nBtlD3A5h10VrSnKavKNior0oUpbsZXLy2mkEAIAQAgBACAEAIBCbBAc3E8XgoYc7flnk2DGEXXFisZChDeSudVDCTrStocpu1redBMO54K4I7ZvrTfmdvVD76F/O6DnRVHqsp9cR402OqJ99DhtfS86Sr/sg/esrbFPuSMdUVO8vUUbXUZH/AEtZ/YHxWeuKfcl5f2Y6ord5fn7Cja6g/UVf2Y+Kytr0u7Ly/sdUV+a8x/524d+hU/ZqfWtHuvyI9U4jw8w/O3DLamcdpjKz1pQ438h1TiPDzAbW4TzmkH9WUW1sLzfkw9k4rl6oX87sH+sOHfGVnrXC970f8GOqcX3fVC/nbg/1o/Zu+Cx1rhefo/4MdU4vu+qFG1eDH+WW/oH4LPWuE73o/wCB1Vi+79CpiW2OHwQnyN5nlI83QgA9t1pr7WpKP6WbN1DY9ecv1PdRiaieSskfWV8jnXPBxsXdncqOcpTlv1M3+eh6GEI0l0VJfn8lKaV1UbEZYx6IGlgtWjz1OuEFTXiK+nkjphO6N4gJsHuGnitqo1ZR3knY1uvT3t26uJHEZTliAkdxs2yksJXekCEsVSjrIuw4LXzWMdI9ynHAYp/CantHDR+MvU+yWKTvYHxCFmYXJI0F+9dNHZldu8jlq7Yw8U913Z6bGABZugAsB2L0iVsjyXiPWQCAEAIAQAgBACAQ8EByNqap1NhEuQ2c6zePiq7alV08NLd45Hbs+kqtdJnl0MkjwXbw6nS3ReVlGMcrHtJRisrEueobwmcsKRHdg9UIZqkH55yzvDo6fIPKKrlM5N7x+o6Kl3Q8qqv1x9qlvvm/MdDT7oeV1X6w+KxvPm/MdDS5D/K6v9asqpJcWY6GlyE8sqr/ADnsTpJc2Y6CnyF8uq7+mPBSVWS4j2elyDy+r/THgpe0VO99B7PS5B5fV/pDwT2ip3voPZ6Qhrqo8SP9epYdab1kPZ6Y3yyoPEBOln3jPQQIJHSTG8riexQcs7m2EYw0FA8FC5lmwx+Jv/D+Cme0eeIhZ3aQT969pgqW9QpwfJHiMVWcMTVqp6XMPHhcDBYNFuxpVysJSXwopJbXr3vvPy/svU1K2KxjcW26OcPvU1hafI0y2rWfxeh1IMSrqYBsdU8Aci8n3hS9lhyOeW0qreq/P2L0W0mIM0zMf32WHhKZHrGr4F2LaqrHpQtPc5QeDhzNi2lPii/TbUZj8rSuDRqTfgFqlg7LJm+ntBS1RpIpGyRte1wLXC4PVcbVnYsk09B6wZBACAEAIBDwQGS2/qRHRRMudcz/AAFvvVHtqWUIc3cuti096q2YGlnYIgAHcOioakHc9TUg7lprs7bgGwNtVqcbGp5OzGmyGSB0sYcW31HYVNQdrm1RbVwa9riQ03IFzom6w1bUXM3t8EsYsJvWAgF3Hhos7rM7rYu8YSADqexYszG60KHBYsLA5zQLk2CylcJMbvGfpBN1md1jrhLGEJcdQiRkQPaRcOHijTDQo85wa3VzjYAcysxg5NJcTDaSbZrNqJIJsPwhlPLG8MlcbxuDvRjLTqOlwvoODh78VyPm+Oq/pTlz/k4jT2nxVyeYuwlN90ON8/sy/FZSIzd7fv8AY1+z2D0FZhUctRBme5zvOJ14qsxFacalosusJhaNSipSRdfsrhb+Eb29zytaxdXmbns6g+BmNtMMbgNBHV0rTKwvyvDz6N+Fl1YbEyqS3ZFfjcHChDfgcPBcQbVt3zWGJ0Z85t7iy6npY4YNKV+RvdlqiZ++p3PaYY/OaD6Qza+F7qsxUIr3i9wM5u8XovuaMLlO8EAIAQAgEPBAed/lIqP4yIgdGxhvrJv7l5rakt7FqPJfn2PU7Ap+5vc2ZajYMguquo7svKrdy+wAQ97/AHLQzmlnIZexREisG5pX6Dotrdkbr2iTRNA3htwYotmubvZEeqEyB4G9YOgK2rss2J5MliaDMzvUDXNvdY4gXNuCwYWhDUj5MDq4KcNTZDUQxi3DVLhyZYlsHkAWsB7lFmqGhEbZXE8mn3LMdSYyNgyN0HBZcsyTbuXsJYDiMA5CRpPqIK34Rb1eC8Tjxs7UJvwObskN47EJjzcSO8k3X0ikluw+R8rxM8qvzO3wXUVVxsvGK/8AOf4ERGXD9/sXqDaqaix3B8HiLdy8nykPGpznzbHs4+pUGPq7ldJF1hMQ4whE9LbdYLc422VGK7Zqvitq2IyN726/cttCW7UTOXGQ36EkeP7MT7vEHxk3bK0i3uVzLU83HtI9E2Yqd1XQsJPngxHtI4e5ceKheDZaYCpaaX7eRtxwVaXQIAQAgBAI7ggPJttp9/jMw5byw7gAF5HEz38VUn+3lke22PT3MPH5fUoQDKzuXDJ5nbN3Za4Qs7SStbNHxMiKInwIYtXvPaVsmbJaImj+bl9QUWa5dpIjKyTK7vnx+6tvwmxdkmh+eA6C6gQn2QWAQzm4YP2lOPMnDiP6DtCwYZJKbvd3qJCHZIn6RydrbKcdSS1QR+iO5Repl6l7DdKgyco2PcfUwrv2bG+Jj4ZlbtSVsNL84nN2MH/KKmT9KbL7GlfRoqzivA+V15Xg/Fs7BW44AkGYMLRmLM9xbrb4Ig+BjNpakxbX0xaQMkTDe+vBeb2uvfbRYUf9Fz2vB9qMLlpYI566JlQGAPbIbG/rU6EJzpRmkWlPGUbJSlZnWNXRVUbo2VMEjXgtIbIDcFTtKObR0KpTmrJpng1LDNR4tHmbl3cgzXIF7FWTxdFas8pKLh7r1TN1RTbmcPadGubIPUdVtmlKJ1UZ7srrmelNN2gjmFTaHpRUAIAQAgGTP3cb3ng0ErEnupszFXaR4xijnT4kXanme+/+y8Sn7rlzbPoGGW5RSJGjze1aDD1JjpFGP2b+1RZrXaZG7iiJkFPwJ6krZM2SJ2aQvPVwUWapdtEROiybEQEXmkI5AD2LZ8KNi7KJ4dHOPRpUTXLOwz4rBIim1kYO9bF2ScdGSM1kYO1R4EXkhzjck9SsEYrIim+aI6uAU4LMku0PadFBg6GF0UuINrKaneGSSUsjWk8nEWCttjx/Xb8Cm2zK1C3iits7STUOAiGpjMcwmcJGnqCW/cF7rDSc7yfNnzjaUI01GEeSLd9V1lUA94QDZo4pm5Zoo5WjgJGB1vFQnThNWmrozvNKxHJR0UjbSUcbuVxcFaY4WnBWhkuXDyJdJzRz48FNJUsqcPrp6aVmrXAcPD3LNXDupG1zMayi95ZMsYlSSYlMyaZ9PFJltIWB2WQ9cv0fFcU8HXj2GjZVrU60lKWv1OnSkgtblAbkyaOvYclYRUlBKWpCLTl7uh6RgtSKrDYH/SDA1/Y4DVVFWLjNo9Jh579NMvLWbwQAgBAMljbLG+N17OBBsoyipRcXxMxbi7oz1Rsfh5iAgMjJB9NxzZu9Vs9lUNzdjkWcNrV1K8s0Z7Edma2lu5jRKwc2fBU+I2VWpP3c0WtDalKpk8mceZjmhrSNWi1iq2cXF2kWFOcZZorSXAJ7EVjfHNkcALYmnnZSk7sm9SYfMAdSVFmv4yJ6yjZEhjHykh6lbJaJEnkkTMFmyd33qBCWqGFZRIidrMOxo95U/hJrJEkfz7PH2KPAhLshfRYMpEctzlHVynHRmY6se3goMwajYdl6uoeRo2MDxd+CvdixznL5Hntuy92EfEhxKQyTzPeb5p327r2Xt8PG0EvBHzjGy3qj+b+pQyt6u8FvOKyCzRzd4IMgs0/T8Qgy5jf6Q7UMPwEseRHihhoab9PBZI2J6cnMOWoNlCWhup5NG62RfehqAeVQeHa1v4qqxfbXy/k9BgH+m14nfXMdwIAQAgBACATKEBz8RwihrmnfQNzkWzt0K5q2FpVl76OijiqtF+6zzjaahkwisNOSHRubmY48wvMYrB+z1d3hwPW7PxMcTS3+PE4ZrHAWaG6clo6JPU77RejEjxB8j9zlY22pcbgD2FbYYWMtZWK/F4yFB5Zv5/0y0/PyqaE98j/8i6VgKX/Vfn7nEtsP/n6/0QATNvlqMOdf/wAhw/wqTwNJ/wDqiXXD/wCfr/RIzyixvLh9jx/jY+8KLwFPhURjrhPWn6/0PDJD/wB6h/8AqasewR/6Il1xHuPzQzcy5y7e0BP/ALbVn2FWt0kfMz1yu4/NDhHMHAh1ETwsKtnxWPYOVSPmOuIvJwfoUa6uNE/JLTveSLgwua8eIKjLASj8aOuhtCnVdtPmLhlUzE8QFILU4DC/fT6M5aad/sWylgHL40K+0KdFXWfyO83CmE5RiuGjoTI74LZ1S3/6I43tumvgfp/IUdfVYJVSxMnpnB7hpFI2XOOWlgRbXge8aKxwdH2aLg3mymx2L9qmpWskTVEge0Em9y92nDVxXsKeh4OvO7z8fqVsw6rZc57oaXga39qwN5C52uaWgjXmOKDfQmcON7EIYuBshnIB2ICWAnP6wsSJwZt9jjeGsB/WNP8AdVVjO2vl92X+z9JfP7GkXKWIIAQAgBACAEAjuSA87/KZLFHUU5kkLI3RFhe1uZzSTe4HP8VQbTW9Xhbgi1wdedPCVXS7Ss/t+fIw+LGlZXQNppZHTGJoEAZcPH6Rd1XDS3nTbkrK+pq2Vj8Q66U3dZ3vp8zr4ZhNXlfJK1sQc4mx1sFzVHvNbiucGOqKpiJSvfMWoiwqDzarE4mnoZ2tPvRUa70RpU7aRI2UmG1elFiTXn+bma72LLjWjrH0JOpzj5EU1BVUwuPlWjmNCo76eqsa3Le7LIWSXuDx5go0aHUnF6kgN1DQx00uYHgTa9uxL3MqpUejEbG+QtayNxJ6BTukSUqpHUwywkbyN1idDZSi09DLnV5lR77NOZuna1bEuRqlOqlmdHZprXYg2WOwdEMwI5aKe9KDVnZmuFaWbOk+KBx1gjPqWv27ErSo/M53FS4DDBTfV4/BZ6wxX/R+bHRx5DXQUoF3QQtHV2iysZjH8bfmTVC+kRGRUb2ktgid+7ZFjcXD4n5sx7NZZxHeSMJ+QlMRtweS5h+8K2wP+Q16btW95HLUwkZdlWZFvHRvMU7Cx/vHUHmvZ4XE0sTBTgyumpU5bskSi1lvJJkkPpeHvWGThqbjY0fJVn77fcqvGdqPy+5f7P0l8/saVchYggBACAEAIBHcEByMQnkllc2mqMm6Hni3NcVWUpytTna2pqk3f3TE4rUR1c1p2tnfoGhwuvL4mvOpU3m8zijjq0LqLKtW6gwSAVc8LPKHi0UbR5zvgO1Tp0pS7efh/JuhVqSg03kzP1NRX48SHzOhp7+jHo38VulUjSytdl9gdj1Ki36vur1KcOzVLEQX3dc68uaxPHVWX1PZeEh8JHVbO0shYYW7sjUc9VKnjai7TuZq7Jw01kiSlq8XwRjS5/lVHfzo3uuQOtzwWzeo18krSKDG7GnSTnDNfQ7T20+LUPl+GEhzdHxEWc09CFyzpOm7cPzNeH0KCpHOzOXDUkmx5LEqdjjeR38FcPJJiQDeUce5a2knmuX3MqbSyZbMnmMs1vDktc0kkHVlzGZyT6IUUkY6WfMgqGh9DO3dsu7MALceK2xtGz8R0kmszl7HUNZQU9W+sADi0NjGYGy68RWpzzhwTCskdCqqIaSndUVUjY4mcSePcOp7Fw0qU6r3Yk4QcnZGakxTE8YkdHhoFHTt9KU+mR3/AAVn0VDDK885F/gNjyr+81Zc2U3bOMe8urp5J3cQXkn3qXt7S9xWL+lsShFe9mWH7PU8bG+SOdGQbg+rsUI42d/fWR108DTowcKeSebTNxsxUUtfQjC8YDI65vmU9Vyk00Dj17+PeuqHs2KW5LKXA87tHZTi3USy8CiySKujdTykxSQvLSHelC8G1u0XWjCYqvgKlou55XE4aM1Z6ETWujcY5HkPabEaLun/AJLiou24vU4VhoLImZ84xu9cMxtcAfBRX+SYqWW6kbFQgjQ7PVjqGvj+Ue6KUhshcRbhobDtU47Tq1qsek08vzM7cK1Sl4M344K2LYEAIAQAgBAIUBjK82qql2trusR3rzmJ/wBkv3KqpNqTtzOdh8W+cCWBxc4Bug4/60XDh6anrxf556Eaac5WK+2mC4f5bTxtL31jm3ku8kAcgBy1uV345Rw8Ywj2nqer2RgoSl0s1lE5z3RUkLWRCz7Wc7oqqTWizZ6WEZVHd6FNu8nedzDJJrru2kj1kLW7LVm5zjHVjS3Uh7HNcDYgi1ln5ElNPRjixsrTDNbK4W15fgp0nZ+JCemQ7ZHBZo8afHHLljlu3L1FiRfsuCL9o6q2oQ9qVr2aPL7VwNKN6i4/U09P+T1lRUT1FXPJTuc+7WREEHtXRS2dJxaqZcvkeejhu8VcQwmLA5XUkUr5GuIfd9r6hVuOoRoVVFO+n3OfEU1DJFIkZWi/ALgedjnGki2pCXQGvcN1a449ViUk42MD6YXoTbi+S11O36dlxJU4t5IzFYP4drTG11qWB+Vjc2rv2rdT19SsE/Z6atqz3NDYUcP0bqO7au+S8DqCnjoYBExoDmnUDgPiuSbzvLNl5TXBaFaR4zamx6c1FJm6+6ITlLc4c2/o5m2uiV9DClF6MtwSRyh8M40cCLkKcHnn+M11I5XiXNnMAnr8QqAzEGslYc9pGZ9608bm+varCjR9qbTlaX5meO2ts1wqKpT7L4E2K0rqeodvQRJE7dvseI5FV+IpyjdSWaPN1obk2Vmhpew3IsbgFc0HaRBnTpXx5oc0rWt3jbuPIXVhRs1C75E462PTWWygg3FuK9WXI5ACAEAIAQCOQGQxKgq45pWtiklBuQ5jSQVQYmhUUnZX/GVtWhJSyH7PYfOyriM0MjGx+cczSNeXt9yzgMPNVFvRtb8+/obMNScZXaM9jkhfjlfM7UtdlaSOFhZcG0Km9iZt8Mj3WBpbuGhFcTj0tP5bWCBziGWLnkdP91wykoQ3md9er0VO61NHTwspImxNBs0Gyq5zlUd2VUpOb3mMfBE+OQyMaS7Q6cVKM2mrGVJxtYzs7crpWMeHbp2XN1H+tPUrNaJ8y2pS3oq50dmp3x49QuBuXPyeo8VZbOlaurcTg2lTUsNPwPVR3L1Gp5BEUlLBM7NNBE88i9gK1ypwk7yjcOKGfwfR/U6f7NvwUegpd1eSMbkeQHDqI/yOD7MJ7PS7q8kNyPIacMoTxo4Pswns9HuryQ3I8jJ/lHwoR7Oy1OHsEDodZDHpdnNcuJwtPd3oxWRYbMVKOJi5RuYnCKBuHwwseM0rmNme4dHMa4D+8VTYn/ZZ8Mz1k6rrOU+F7eTaGVEl3PkN+PvXH2nc3O0InfpqOmjpCzLmu0El41d0VfVqyc8tCpqVJyle5O7dyQ7tzA69hlI0stcZOMr3Nd2ndMzU9LLSODJHB2mZrh07VZRmpreRa0ayqRud3ZOqczG6G30nFju0Ef7KxwE7YiPkcO06V8PPwzO1trTBtWJDcCeLUXtq1b9qRjCrfmvoeExkLq6MvHELtcxr7tNwdVSpSeaRxbjOrTQ1EkYDIpnnsaSu+lCTgluvyJqEnwPSIQRCwEa5QvUx0LdaEiyZBACAEAIAQCW6oBCEB5ttNCYMXq22tnOcLyO0obuIlbjmet2bPfw8fDI5GEvLMSjs8BsjS035ka2964a8b0HkdeLScDRG4cNdXAcVVIqxCQ0uz6cws2voDP1gbvat8bQ1t2s05u1J96tacWqSuWeHulFPxJNmGGfaCgY292SZj3BWOz4N14mvaM1HCy8T1tvEleqPGDkAIAQAgIqiCOohkhmYHxyNLXNPMFYavkZTcXdHlGN0n8G4nLRBznMiY2NhdqcoaMv92w9S8tjoblZnscBU6bDxmc6lc2OeJ7rZWygm/Q3C4pJuErHXXTlTdjRZmuDQwC/M3vdVe61qVFmhzc97taLjqsOxhs4mKTmWqkaW/MsN3HmXWsPYrLDU92lvHfhY7sb8ybZmmkrMWpImNN2ytkJvazWm5XdgqbqV4pfMbQqKnQlKXK3metZAbEtFx1XqzxfAcG2QC2WQKgBACAEAIAQAgBAIUBkttMJnlP8ACFM3OWMyyM5kdQqbauDlU/VjwLrZWMhT/RqcXkYJ1tbatOunEHkQqCMranprN6lunxWYSgzhr2gW80WJPUrRPDU2vdOWeCi+yx1bWmsYWOJijJuXZ/O7gApUKEYZsxDDbjzzKNTUNORjBkiZ6Iv4k9pW9+8zphBq7erNr+TzCXxNlxGojc18nmQl/HLzNvvXoNl4ZwTnNWZ5zbOKU5KlB5cTbDirYpBUAIAQAgEJsgMN+USGnbJTVTXNFS27Szm5vI+pUu1qKlFTWpe7FruLdN6PT5mGDwCSWhwOjmnmFSRdmektdZF2hrzRxNhAzxgmzgRmF+o59611qEanvJnHUwu+7oHYvKXyNZHYfRc4+9QWGhldmFgu8UpJszSLk3OZznfSd+HRdLeVo6HXCCibj8nVA8Omr5Ijlc0Mjc722Vzsqg43qP8AY89tqvGVqUX8zdA9VclCKsgEAIAQAgBACAEAIAQAgIap4ihfIbHKOHVRk7K5KC3pWPMcYw6beyTQsAzOzZWtt4LzuIwDlNzjx4HrMJit2KhJfucUtc0EPaW2NtRZcFShODzRZxnGSyZXjqN8/LHdx6NaVlYafISnCPEvU+HTucHlha4G9iF20cK1nJHFXr7ytBnp2zFbLV0LG1LXCeIZXX5jkVf0JOUczyeJp7k8jtLcc4IAQAgBAVq+oNNTvkaLuA0CjJ2VyUIuTseb4pQ1NfVOnqXl7ib6jgq2pHfeZcUVuJM5VZhk0TS9jM1uKrq2Ds7xZb4fGXVpI5WbUh4tbjm0XJKlKJYRnGWg0SF793GAXcrFFSk+BlyS1NnshsrHiLjV4kLwsNmwg+mf2uxWeCwF/fqFJtLabpro6Or4norImsa1rQGgcA0WsrtHl7D1kyLZZAqAEAIAQAgBACAEAIAQEFUA5mVwuFGSuTp63Ku5jsPNChZG9ydxjqWFwsY2nvCjuozvy5jRSQDURMB7gm6jPSS5j3RMIALRp2LNkRUncmo2tjks0WuNVKKsQq5q5dWw0AgBACAEBXrGNeyzhcKEzZTyZR3EZ+iPBQUUdG/K2o80kGTKY2kdyOCI9JLmQuw6kcDmgjN+rQounHkbOnqcwbh1I112wMB/dCyoJGJV6ltS/SRsiBDGgDsFlsikjmqSctSyFM1ioAQAgBACAEB//9k=;" parent="1" vertex="1">
          <mxGeometry x="27.999999999999975" y="151.60000000000002" width="78" height="48.5" as="geometry" />
        </mxCell>
        <mxCell id="bGE7AOWuLVwoPFe066m--4" value="" style="endArrow=classic;startArrow=classic;html=1;rounded=0;exitX=1;exitY=0.5;exitDx=0;exitDy=0;exitPerimeter=0;entryX=0;entryY=0;entryDx=0;entryDy=0;entryPerimeter=0;" parent="1" source="-6WKzzLJTVQNrHKm3zgj-1" target="U2aRp7d5ERU7_1nGRkAy-4" edge="1">
          <mxGeometry width="50" height="50" relative="1" as="geometry">
            <mxPoint x="460" y="340" as="sourcePoint" />
            <mxPoint x="510" y="290" as="targetPoint" />
          </mxGeometry>
        </mxCell>
        <mxCell id="bGE7AOWuLVwoPFe066m--5" value="" style="sketch=0;points=[[0,0,0],[0.25,0,0],[0.5,0,0],[0.75,0,0],[1,0,0],[0,1,0],[0.25,1,0],[0.5,1,0],[0.75,1,0],[1,1,0],[0,0.25,0],[0,0.5,0],[0,0.75,0],[1,0.25,0],[1,0.5,0],[1,0.75,0]];outlineConnect=0;fontColor=#232F3E;fillColor=#8C4FFF;strokeColor=#ffffff;dashed=0;verticalLabelPosition=bottom;verticalAlign=top;align=center;html=1;fontSize=12;fontStyle=0;aspect=fixed;shape=mxgraph.aws4.resourceIcon;resIcon=mxgraph.aws4.quicksight;" parent="1" vertex="1">
          <mxGeometry x="783" y="399" width="38" height="38" as="geometry" />
        </mxCell>
        <mxCell id="bGE7AOWuLVwoPFe066m--6" value="QuickSight" style="text;html=1;align=center;verticalAlign=middle;whiteSpace=wrap;rounded=0;" parent="1" vertex="1">
          <mxGeometry x="716" y="403" width="60" height="30" as="geometry" />
        </mxCell>
        <mxCell id="bGE7AOWuLVwoPFe066m--7" value="" style="endArrow=classic;startArrow=classic;html=1;rounded=0;entryX=1;entryY=0.75;entryDx=0;entryDy=0;exitX=0.855;exitY=0.145;exitDx=0;exitDy=0;exitPerimeter=0;" parent="1" source="-6WKzzLJTVQNrHKm3zgj-2" target="Ac2NSIi3MnS_sZesIx5R-23" edge="1">
          <mxGeometry width="50" height="50" relative="1" as="geometry">
            <mxPoint x="460" y="340" as="sourcePoint" />
            <mxPoint x="510" y="290" as="targetPoint" />
          </mxGeometry>
        </mxCell>
        <mxCell id="PF1aHUV_kjn-xjKAK8pw-1" value="" style="sketch=0;points=[[0,0,0],[0.25,0,0],[0.5,0,0],[0.75,0,0],[1,0,0],[0,1,0],[0.25,1,0],[0.5,1,0],[0.75,1,0],[1,1,0],[0,0.25,0],[0,0.5,0],[0,0.75,0],[1,0.25,0],[1,0.5,0],[1,0.75,0]];points=[[0,0,0],[0.25,0,0],[0.5,0,0],[0.75,0,0],[1,0,0],[0,1,0],[0.25,1,0],[0.5,1,0],[0.75,1,0],[1,1,0],[0,0.25,0],[0,0.5,0],[0,0.75,0],[1,0.25,0],[1,0.5,0],[1,0.75,0]];outlineConnect=0;fontColor=#232F3E;fillColor=#E7157B;strokeColor=#ffffff;dashed=0;verticalLabelPosition=bottom;verticalAlign=top;align=center;html=1;fontSize=12;fontStyle=0;aspect=fixed;shape=mxgraph.aws4.resourceIcon;resIcon=mxgraph.aws4.cloudtrail;" vertex="1" parent="1">
          <mxGeometry x="774" y="224" width="46" height="46" as="geometry" />
        </mxCell>
      </root>
    </mxGraphModel>
  </diagram>
</mxfile>
